<svg width="54" height="62" viewBox="0 0 54 62" fill="none" xmlns="http://www.w3.org/2000/svg">
<g opacity="0.85">
<path d="M22.9228 19.8196C22.7187 19.9983 22.5962 20.2524 22.5833 20.5233C22.5704 20.7942 22.6682 21.0588 22.8544 21.2561C23.0375 21.4576 23.2933 21.578 23.5653 21.5908C23.8373 21.6037 24.1033 21.5079 24.3046 21.3245C25.8617 19.8478 28.3022 19.8478 29.8593 21.3245C30.0468 21.5041 30.2975 21.6024 30.5571 21.5981C30.8455 21.5981 31.1199 21.4734 31.3096 21.2561C31.4832 21.0446 31.5624 20.7712 31.5288 20.4997C31.4952 20.2282 31.3517 19.9823 31.1317 19.8196C28.7876 17.7479 25.2669 17.7479 22.9228 19.8196ZM38.7524 12.1036C35.6686 8.9872 31.4663 7.23364 27.082 7.23364C22.6976 7.23364 18.4954 8.9872 15.4116 12.1036C15.1371 12.3594 15.024 12.7446 15.1169 13.1082C15.2097 13.4717 15.4936 13.7556 15.8572 13.8484C16.2208 13.9413 16.606 13.8283 16.8618 13.5538C19.5608 10.8216 23.2414 9.28391 27.082 9.28391C30.9225 9.28391 34.6031 10.8216 37.3021 13.5538C37.4935 13.7475 37.7549 13.856 38.0272 13.8547C38.2987 13.8516 38.5585 13.7438 38.7524 13.5538C38.9374 13.3542 39.0357 13.0893 39.0254 12.8173C39.0151 12.5454 38.8972 12.2886 38.6976 12.1036H38.7524ZM27.0272 12.7055C24.0615 12.7081 21.2158 13.8777 19.1056 15.9616C18.7437 16.1755 18.5488 16.5884 18.6139 17.0037C18.679 17.419 18.9908 17.7526 19.4007 17.8456C19.8107 17.9386 20.2359 17.7721 20.4738 17.4254C24.076 13.8682 29.869 13.8682 33.4713 17.4254C33.6618 17.621 33.9233 17.7313 34.1964 17.7313C34.4695 17.7313 34.731 17.621 34.9215 17.4254C35.3216 17.0248 35.3216 16.3759 34.9215 15.9753C32.8203 13.893 29.9855 12.7189 27.0272 12.7055Z" fill="#140000"/>
<path d="M44.8134 31.8587C44.2498 31.8661 43.7947 32.3212 43.7873 32.8848V53.7481H32.158V41.0933C32.1506 40.5297 31.6955 40.0746 31.1318 40.0672H22.9229C22.3593 40.0746 21.9041 40.5297 21.8968 41.0933V53.7481H10.2674V32.8848C10.2674 32.3181 9.80801 31.8587 9.2413 31.8587C8.67459 31.8587 8.21519 32.3181 8.21519 32.8848V54.7742C8.22255 55.3378 8.67768 55.7929 9.2413 55.8002H44.8134C45.3771 55.7929 45.8322 55.3378 45.8395 54.7742V32.8848C45.8322 32.3212 45.3771 31.8661 44.8134 31.8587ZM30.1057 53.7481H23.949V42.1194H30.1057V53.7481ZM18.2438 18.5472C17.8784 18.1141 17.2335 18.0532 16.7935 18.4104L0.375638 32.0913C0.0394885 32.3668 -0.0865667 32.8243 0.0609895 33.2331C0.208546 33.6419 0.597696 33.9135 1.03235 33.9109C1.27111 33.909 1.50235 33.8271 1.68907 33.6783L18.107 19.9974C18.5401 19.632 18.601 18.9871 18.2438 18.5472ZM53.6791 32.0913L37.2612 18.4104C36.9777 18.166 36.5853 18.0914 36.2319 18.2148C35.8785 18.3381 35.6178 18.6405 35.5479 19.0082C35.4779 19.3759 35.6095 19.753 35.893 19.9974L52.3109 33.6783C52.4977 33.8271 52.7289 33.909 52.9676 33.9109C53.4023 33.9135 53.7915 33.6419 53.939 33.2331C54.0866 32.8243 53.9605 32.3668 53.6244 32.0913H53.6791Z" fill="#140000"/>
</g>
</svg>
