<svg width="54" height="55" viewBox="0 0 54 55" fill="none" xmlns="http://www.w3.org/2000/svg">
<path d="M40.2626 28.6324C40.6217 30.1408 41.9147 31.2183 43.4951 31.2183C45.2909 31.2183 46.7994 29.7099 46.7994 27.9141C46.7994 26.1183 45.2909 24.6099 43.4951 24.6099C41.9147 24.6099 40.6217 25.6873 40.2626 27.1958H23.0225V22.3831H32.7918C33.0073 22.3831 33.2228 22.3113 33.2947 22.1676L37.1737 17.7859H40.2626C40.6217 19.2944 41.9147 20.3718 43.4951 20.3718C45.2909 20.3718 46.7994 18.8634 46.7994 17.0676C46.7994 15.2718 45.2909 13.7634 43.4951 13.7634C41.9147 13.7634 40.6217 14.8408 40.2626 16.3493H36.8864C36.6709 16.3493 36.4554 16.4211 36.3835 16.5648L32.4327 20.9465H23.0225V16.4211H30.2777C30.4932 16.4211 30.6368 16.3493 30.7805 16.2056L34.013 12.9732C34.5877 13.3324 35.2342 13.6197 35.9525 13.6197C37.7484 13.6197 39.2569 12.1113 39.2569 10.3155C39.2569 8.51972 37.7484 7.01127 35.9525 7.01127C34.1567 7.01127 32.6482 8.51972 32.6482 10.3155C32.6482 10.8901 32.7918 11.4648 33.0792 11.8958L29.9903 14.9845H23.0225V11.8239C23.0225 8.08873 19.9336 5 16.1983 5C12.9657 5 10.2361 7.29859 9.58956 10.3155C7.36271 10.8183 5.56687 12.3986 4.7767 14.6254C4.05836 16.6366 4.27386 18.8634 5.4232 20.5873C-0.323493 23.0296 -0.682662 31.2183 4.84853 34.1634C3.41186 37.8268 5.49504 42.2085 9.51772 43.2141C8.94305 47.1648 12.0319 50.9 16.1983 50.9C19.9336 50.9 23.0225 47.8831 23.0225 44.0761V40.0535H29.9903L33.0792 43.1423C32.7918 43.6451 32.6482 44.1479 32.6482 44.7225C32.6482 46.5183 34.1567 48.0268 35.9525 48.0268C37.7484 48.0268 39.2569 46.5183 39.2569 44.7225C39.2569 42.9268 37.7484 41.4183 35.9525 41.4183C35.2342 41.4183 34.5877 41.6338 34.013 42.0648L30.7805 38.8324C30.6368 38.6887 30.4932 38.6169 30.2777 38.6169H23.0225V34.0197H32.4327L36.3117 38.4014C36.4554 38.5451 36.6709 38.6169 36.8145 38.6169H40.1907C40.5499 40.1254 41.8429 41.2028 43.4232 41.2028C45.2191 41.2028 46.7276 39.6944 46.7276 37.8986C46.7276 36.1028 45.2191 34.5944 43.4232 34.5944C41.8429 34.5944 40.5499 35.6718 40.1907 37.1803H37.1019L33.2228 32.7986C33.0792 32.6549 32.8637 32.5831 32.72 32.5831H23.0225V28.6324H40.2626ZM43.4951 26.0465C44.5007 26.0465 45.3627 26.9085 45.3627 27.9141C45.3627 28.9197 44.5007 29.7817 43.4951 29.7817C42.4894 29.7817 41.6274 28.9197 41.6274 27.9141C41.6274 26.9085 42.4894 26.0465 43.4951 26.0465ZM43.4951 15.2C44.5007 15.2 45.3627 16.062 45.3627 17.0676C45.3627 18.0732 44.5007 18.9352 43.4951 18.9352C42.4894 18.9352 41.6274 18.0732 41.6274 17.0676C41.6274 15.9901 42.4894 15.2 43.4951 15.2ZM35.9525 8.37606C36.9582 8.37606 37.8202 9.23803 37.8202 10.2437C37.8202 11.2493 36.9582 12.1113 35.9525 12.1113C34.9469 12.1113 34.0849 11.2493 34.0849 10.2437C34.0849 9.23803 34.9469 8.37606 35.9525 8.37606ZM37.8202 44.7944C37.8202 45.8 36.9582 46.662 35.9525 46.662C34.9469 46.662 34.0849 45.8 34.0849 44.7944C34.0849 43.7887 34.9469 42.9268 35.9525 42.9268C36.9582 42.9268 37.8202 43.7169 37.8202 44.7944ZM43.4951 36.1028C44.5007 36.1028 45.3627 36.9648 45.3627 37.9704C45.3627 38.9761 44.5007 39.838 43.4951 39.838C42.4894 39.838 41.6274 38.9761 41.6274 37.9704C41.6274 36.9648 42.4894 36.1028 43.4951 36.1028ZM21.5858 44.0761C21.5858 47.0211 19.1434 49.4634 16.1983 49.4634C14.5461 49.4634 13.0376 48.7451 11.9601 47.3803C9.23039 43.8606 11.7446 38.6887 16.1983 38.6887C16.6293 38.6887 16.9166 38.4014 16.9166 37.9704C16.9166 37.5394 16.6293 37.2521 16.1983 37.2521C13.2531 37.2521 10.7389 39.1916 9.80506 41.7775C6.64438 40.9873 4.9922 37.5394 6.14154 34.6662C8.87122 35.5282 11.8164 34.8099 13.7559 32.7986C14.0432 32.5113 14.0432 32.0803 13.7559 31.793C13.4686 31.5056 13.0376 31.5056 12.7502 31.793C8.79939 35.7437 1.97519 32.7268 2.33435 27.0521C2.69352 21.7366 9.08672 19.438 12.7502 23.1014C13.0376 23.3887 13.4686 23.3887 13.7559 23.1014C14.0432 22.8141 14.0432 22.3831 13.7559 22.0958C11.8882 20.2282 9.30222 19.5817 6.85988 20.0845C4.63303 17.1394 6.06971 12.9014 9.44589 11.8239C9.51772 15.5592 12.5347 18.5042 16.2701 18.5042C16.7011 18.5042 16.9884 18.2169 16.9884 17.7859C16.9884 17.3549 16.7011 17.0676 16.2701 17.0676C13.3249 17.0676 10.8826 14.6972 10.8826 11.6803C10.8826 8.66338 13.3249 6.29296 16.2701 6.29296C19.2153 6.29296 21.6576 8.73521 21.6576 11.6803V44.0761H21.5858Z" fill="black" fill-opacity="0.85" stroke="black" stroke-width="0.198706"/>
</svg>
