<svg width="50" height="51" viewBox="0 0 50 51" fill="none" xmlns="http://www.w3.org/2000/svg">
<path d="M44.2627 22.4777C41.3747 22.4777 39.0254 20.1106 39.0254 17.2025C39.0254 16.6506 39.133 16.129 39.2898 15.6292C39.0246 15.6006 38.7577 15.583 38.49 15.583C34.9873 15.583 31.9967 17.9493 31.0961 21.3605C31.634 22.1871 31.9701 23.0993 32.1502 24.0368C34.5912 22.8524 37.5101 23.1758 39.6334 24.991C39.9895 25.2951 40.3005 25.6437 40.5874 26.0116C40.655 26.0024 40.7184 25.9805 40.7867 25.9746C43.1469 25.7756 45.2009 27.579 45.3911 29.9109C45.582 32.2746 43.8299 34.3545 41.4831 34.5477C41.3647 34.5578 41.2479 34.5628 41.1312 34.5628C38.9262 34.5628 37.0589 32.8274 36.8796 30.6114C36.7445 28.9474 37.5843 27.4388 38.9053 26.6156C38.7919 26.498 38.6793 26.3778 38.5542 26.2712C36.7704 24.7466 34.2468 24.618 32.2911 25.889C32.2019 27.5177 31.5981 29.1246 30.4731 30.4359C34.0591 31.8479 36.4626 35.2911 36.4626 39.2542C36.4626 40.0833 36.3309 40.8956 36.1199 41.6877C37.0422 42.6461 37.6152 43.9464 37.6152 45.382C37.6152 48.3144 35.2467 50.7 32.3362 50.7C29.4248 50.7 27.0563 48.3144 27.0563 45.382C27.0563 42.4496 29.4248 40.064 32.3362 40.064C33.1743 40.064 33.9566 40.2798 34.6613 40.6318C34.7422 40.1782 34.7947 39.7196 34.7947 39.2542C34.7947 35.7086 32.4454 32.682 29.0553 31.7471C28.1513 32.3729 27.1264 32.7837 26.0422 32.9643C27.1981 35.4851 26.8412 38.4965 25.019 40.6578C24.5903 41.1677 24.0807 41.586 23.5345 41.954C23.5695 42.1262 23.6146 42.2933 23.6296 42.4722C23.7255 43.6508 23.3594 44.7974 22.5988 45.6987C21.839 46.6008 20.7757 47.151 19.6049 47.2468C19.4839 47.2569 19.363 47.2619 19.2429 47.2619C16.9729 47.2619 15.0497 45.4752 14.8646 43.1938C14.7695 42.0144 15.1348 40.8687 15.8945 39.9665C16.6551 39.0644 17.7184 38.515 18.8885 38.4184C20.5289 38.2806 22.0175 39.0996 22.8773 40.3815C23.1917 40.1412 23.4886 39.8775 23.7472 39.5709C25.3075 37.7204 25.4568 35.0592 24.1608 33.0113C22.5112 32.8668 20.9692 32.2125 19.7425 31.0785C18.3864 34.698 14.933 37.1912 11.0133 37.1912C10.5213 37.1912 10.0334 37.1391 9.55057 37.0618C8.60569 38.4461 7.02532 39.3575 5.23563 39.3575C2.34845 39.3575 0 36.9921 0 34.084C0 31.1759 2.34845 28.8105 5.23563 28.8105C8.12199 28.8105 10.4713 31.1759 10.4713 34.084C10.4713 34.567 10.3862 35.0265 10.2644 35.4708C10.513 35.4952 10.7632 35.5112 11.0133 35.5112C14.571 35.5112 17.645 32.9996 18.459 29.5085C17.9653 28.713 17.6133 27.8537 17.4407 26.96C16.4516 27.4623 15.3767 27.7277 14.2983 27.7277C12.6988 27.7277 11.1042 27.1767 9.82077 26.0788C9.26535 25.605 8.81918 25.0364 8.4414 24.4198C8.41387 24.4223 8.38802 24.4324 8.3605 24.4341C8.24208 24.4442 8.12449 24.4492 8.00857 24.4492C5.80273 24.4492 3.93381 22.7129 3.75368 20.4953C3.5627 18.1307 5.31653 16.0492 7.66414 15.856C10.0168 15.6603 12.08 17.4612 12.2701 19.7948C12.3635 20.9405 12.0074 22.0535 11.2694 22.9305C10.9316 23.3303 10.5271 23.6495 10.0851 23.8973C10.3237 24.2241 10.588 24.5315 10.8999 24.7986C12.723 26.3568 15.3641 26.4434 17.3215 25.0767C17.414 23.4278 18.0562 21.8183 19.2104 20.5054C15.5743 19.1849 13.135 15.7728 13.135 11.7761C13.135 11.0655 13.2359 10.3658 13.3926 9.67865C12.1826 8.71349 11.3895 7.23845 11.3895 5.56601C11.3895 2.66213 13.7346 0.300049 16.6176 0.300049C19.4998 0.300049 21.8457 2.66213 21.8457 5.56601C21.8457 8.46989 19.4998 10.8311 16.6176 10.8311C16.0188 10.8311 15.4525 10.7085 14.9155 10.5212C14.8479 10.9344 14.8029 11.3528 14.8029 11.7761C14.8029 15.3671 17.2122 18.3735 20.6798 19.1841C21.5597 18.5978 22.5513 18.2147 23.597 18.0442C22.3236 15.4452 22.6538 12.323 24.5678 10.0533C24.7829 9.79709 25.0406 9.58037 25.2892 9.35609C25.2416 9.14777 25.1941 8.93945 25.1757 8.72189C24.9756 6.24557 26.812 4.06577 29.2705 3.86333C31.7441 3.65501 33.8957 5.54333 34.0933 7.98689C34.2943 10.4632 32.4579 12.643 29.9994 12.8454C29.876 12.8555 29.7525 12.8606 29.6308 12.8606C28.1555 12.8606 26.8303 12.1138 26.0114 10.9739C25.9572 11.0327 25.8905 11.0789 25.8396 11.1402C24.1875 13.1 24.0741 15.8812 25.5085 18.003C27.1114 18.1534 28.61 18.7851 29.8143 19.872C31.2078 16.2978 34.5945 13.903 38.49 13.903C39.0262 13.903 39.5583 13.9643 40.0829 14.0567C41.0394 12.7715 42.5497 11.9265 44.2627 11.9265C47.1507 11.9265 49.5 14.2936 49.5 17.2025C49.5 20.1106 47.1507 22.4777 44.2627 22.4777ZM38.5417 30.4745C38.6576 31.8966 39.9127 32.9928 41.3472 32.8736C42.7774 32.756 43.8449 31.4884 43.729 30.0478C43.6189 28.6979 42.4814 27.6404 41.1387 27.6404C41.0669 27.6404 40.9952 27.6429 40.9235 27.6488C39.4933 27.7672 38.4249 29.0339 38.5417 30.4745ZM32.3362 41.744C30.3438 41.744 28.7243 43.3761 28.7243 45.382C28.7243 47.3879 30.3438 49.02 32.3362 49.02C34.3268 49.02 35.9472 47.3879 35.9472 45.382C35.9472 43.3761 34.3268 41.744 32.3362 41.744ZM19.2504 40.0841C19.1762 40.0841 19.1003 40.0866 19.0244 40.0925C18.298 40.153 17.6384 40.494 17.1663 41.0543C16.6952 41.6138 16.4675 42.3252 16.5275 43.0569C16.6484 44.5479 17.9703 45.6903 19.4698 45.5727C20.1961 45.513 20.8558 45.1712 21.327 44.6117C21.799 44.0523 22.0259 43.3408 21.9666 42.6092C21.8524 41.1929 20.659 40.0841 19.2504 40.0841ZM5.23563 30.4905C3.26831 30.4905 1.66793 32.1024 1.66793 34.084C1.66793 36.0656 3.26831 37.6775 5.23563 37.6775C7.20296 37.6775 8.80334 36.0656 8.80334 34.084C8.80334 32.1024 7.20296 30.4905 5.23563 30.4905ZM10.608 19.9317C10.498 18.5801 9.35959 17.5217 8.01607 17.5217C7.94519 17.5217 7.87263 17.5251 7.80008 17.531C6.36899 17.6486 5.29985 18.9178 5.41577 20.3592C5.53169 21.7822 6.78597 22.8776 8.22373 22.76C9.65565 22.6424 10.7248 21.3731 10.608 19.9317ZM16.6176 9.15197C18.5807 9.15197 20.1778 7.54337 20.1778 5.56601C20.1778 3.58865 18.5807 1.98005 16.6176 1.98005C14.6553 1.98005 13.0574 3.58865 13.0574 5.56601C13.0574 7.54337 14.6553 9.15197 16.6176 9.15197ZM29.8635 11.1705C31.4055 11.0436 32.5572 9.67697 32.4312 8.12381C32.3136 6.66809 31.0869 5.52821 29.6391 5.52821C29.5624 5.52821 29.484 5.53073 29.4064 5.53745C27.8644 5.66429 26.7119 7.03181 26.8378 8.58497C26.9629 10.118 28.3223 11.2956 29.8635 11.1705ZM28.9444 21.342C27.8403 20.2307 26.3725 19.6184 24.8113 19.6184C23.2493 19.6184 21.7815 20.2307 20.6782 21.342C18.3989 23.6378 18.3989 27.3724 20.6782 29.6681C21.7815 30.7803 23.2493 31.3918 24.8113 31.3918C26.3725 31.3918 27.8411 30.7803 28.9444 29.6681C31.2228 27.3724 31.2228 23.6378 28.9444 21.342ZM44.2627 13.6065C42.2945 13.6065 40.6933 15.2193 40.6933 17.2025C40.6933 19.1849 42.2945 20.7977 44.2627 20.7977C46.2309 20.7977 47.8321 19.1849 47.8321 17.2025C47.8321 15.2193 46.2309 13.6065 44.2627 13.6065Z" fill="black" fill-opacity="0.85"/>
</svg>
