<svg width="174" height="177" viewBox="0 0 174 177" fill="none" xmlns="http://www.w3.org/2000/svg">
<g clip-path="url(#clip0_314_4216)">
<g opacity="0.4">
<path d="M19.1313 84.5957C20.0496 85.3997 21.4458 85.3069 22.2497 84.3886C23.0537 83.4703 22.961 82.0741 22.0427 81.2701C21.1243 80.4662 19.7281 80.5589 18.9242 81.4772C18.1202 82.3956 18.213 83.7917 19.1313 84.5957Z" fill="#27AE60"/>
<path d="M36.601 64.6426C37.5193 65.4465 38.9155 65.3538 39.7195 64.4355C40.5234 63.5172 40.4307 62.121 39.5124 61.317C38.5941 60.5131 37.1979 60.6058 36.3939 61.5241C35.59 62.4424 35.6827 63.8386 36.601 64.6426Z" fill="#27AE60"/>
<path d="M54.0688 44.6885C54.9871 45.4924 56.3833 45.3997 57.1872 44.4814C57.9912 43.5631 57.8985 42.1669 56.9802 41.3629C56.0618 40.559 54.6656 40.6517 53.8617 41.57C53.0577 42.4883 53.1505 43.8845 54.0688 44.6885Z" fill="#27AE60"/>
<path d="M71.5365 24.7353C72.4549 25.5393 73.8511 25.4466 74.655 24.5283C75.459 23.6099 75.3663 22.2137 74.4479 21.4098C73.5296 20.6058 72.1334 20.6986 71.3295 21.6169C70.5255 22.5352 70.6182 23.9314 71.5365 24.7353Z" fill="#27AE60"/>
<path d="M89.0053 4.78222C89.9236 5.58617 91.3198 5.49346 92.1238 4.57513C92.9277 3.65681 92.835 2.26062 91.9167 1.45667C90.9984 0.652712 89.6022 0.745426 88.7982 1.66375C87.9943 2.58208 88.087 3.97826 89.0053 4.78222Z" fill="#27AE60"/>
<path d="M39.0844 102.063C40.0027 102.867 41.3989 102.775 42.2029 101.856C43.0068 100.938 42.9141 99.5419 41.9958 98.7379C41.0775 97.934 39.6813 98.0267 38.8773 98.945C38.0734 99.8633 38.1661 101.26 39.0844 102.063Z" fill="#27AE60"/>
<path d="M56.5532 82.1103C57.4715 82.9143 58.8677 82.8216 59.6716 81.9033C60.4756 80.9849 60.3829 79.5887 59.4645 78.7848C58.5462 77.9808 57.15 78.0736 56.3461 78.9919C55.5421 79.9102 55.6348 81.3064 56.5532 82.1103Z" fill="#27AE60"/>
<path d="M74.0199 62.1572C74.9383 62.9612 76.3345 62.8685 77.1384 61.9501C77.9424 61.0318 77.8497 59.6356 76.9313 58.8317C76.013 58.0277 74.6168 58.1204 73.8129 59.0388C73.0089 59.9571 73.1016 61.3533 74.0199 62.1572Z" fill="#27AE60"/>
<path d="M91.4887 42.2041C92.407 43.008 93.8032 42.9153 94.6072 41.997C95.4111 41.0787 95.3184 39.6825 94.4001 38.8785C93.4818 38.0746 92.0856 38.1673 91.2816 39.0856C90.4777 40.004 90.5704 41.4001 91.4887 42.2041Z" fill="#27AE60"/>
<path d="M108.958 22.25C109.877 23.0539 111.273 22.9612 112.077 22.0429C112.881 21.1246 112.788 19.7284 111.87 18.9244C110.951 18.1205 109.555 18.2132 108.751 19.1315C107.947 20.0499 108.04 21.446 108.958 22.25Z" fill="#27AE60"/>
<path d="M59.0375 119.532C59.9559 120.336 61.352 120.243 62.156 119.325C62.9599 118.407 62.8672 117.011 61.9489 116.207C61.0306 115.403 59.6344 115.495 58.8304 116.414C58.0265 117.332 58.1192 118.728 59.0375 119.532Z" fill="#27AE60"/>
<path d="M76.5073 99.5791C77.4256 100.383 78.8218 100.29 79.6257 99.372C80.4297 98.4537 80.337 97.0575 79.4186 96.2535C78.5003 95.4496 77.1041 95.5423 76.3002 96.4606C75.4962 97.379 75.5889 98.7751 76.5073 99.5791Z" fill="#27AE60"/>
<path d="M93.975 79.625C94.8934 80.4289 96.2895 80.3362 97.0935 79.4179C97.8974 78.4996 97.8047 77.1034 96.8864 76.2994C95.9681 75.4955 94.5719 75.5882 93.7679 76.5065C92.964 77.4249 93.0567 78.821 93.975 79.625Z" fill="#27AE60"/>
<path d="M111.444 59.6719C112.362 60.4758 113.758 60.3831 114.562 59.4648C115.366 58.5465 115.273 57.1503 114.355 56.3463C113.437 55.5424 112.041 55.6351 111.237 56.5534C110.433 57.4717 110.525 58.8679 111.444 59.6719Z" fill="#27AE60"/>
<path d="M128.911 39.7187C129.829 40.5227 131.225 40.43 132.029 39.5117C132.833 38.5933 132.74 37.1971 131.822 36.3932C130.904 35.5892 129.507 35.6819 128.703 36.6003C127.9 37.5186 127.992 38.9148 128.911 39.7187Z" fill="#27AE60"/>
<path d="M78.9916 137C79.91 137.804 81.3061 137.711 82.1101 136.793C82.9141 135.875 82.8213 134.478 81.903 133.674C80.9847 132.87 79.5885 132.963 78.7845 133.882C77.9806 134.8 78.0733 136.196 78.9916 137Z" fill="#27AE60"/>
<path d="M96.4584 117.048C97.3768 117.852 98.7729 117.759 99.5769 116.841C100.381 115.922 100.288 114.526 99.3698 113.722C98.4515 112.918 97.0553 113.011 96.2513 113.929C95.4474 114.848 95.5401 116.244 96.4584 117.048Z" fill="#27AE60"/>
<path d="M113.926 97.0937C114.845 97.8977 116.241 97.805 117.045 96.8867C117.849 95.9683 117.756 94.5721 116.838 93.7682C115.919 92.9642 114.523 93.0569 113.719 93.9753C112.915 94.8936 113.008 96.2898 113.926 97.0937Z" fill="#27AE60"/>
<path d="M131.397 77.1406C132.315 77.9446 133.711 77.8519 134.515 76.9335C135.319 76.0152 135.227 74.619 134.308 73.8151C133.39 73.0111 131.994 73.1038 131.19 74.0222C130.386 74.9405 130.479 76.3367 131.397 77.1406Z" fill="#27AE60"/>
<path d="M148.866 57.1865C149.784 57.9905 151.18 57.8978 151.984 56.9794C152.788 56.0611 152.695 54.6649 151.777 53.861C150.859 53.057 149.463 53.1497 148.659 54.068C147.855 54.9864 147.947 56.3826 148.866 57.1865Z" fill="#27AE60"/>
<path d="M98.9448 154.468C99.8631 155.272 101.259 155.179 102.063 154.261C102.867 153.342 102.774 151.946 101.856 151.142C100.938 150.338 99.5416 150.431 98.7377 151.349C97.9337 152.268 98.0264 153.664 98.9448 154.468Z" fill="#27AE60"/>
<path d="M116.414 134.516C117.332 135.32 118.728 135.227 119.532 134.309C120.336 133.39 120.243 131.994 119.325 131.19C118.407 130.386 117.01 130.479 116.206 131.397C115.402 132.315 115.495 133.712 116.414 134.516Z" fill="#27AE60"/>
<path d="M133.88 114.562C134.799 115.366 136.195 115.274 136.999 114.355C137.803 113.437 137.71 112.041 136.792 111.237C135.873 110.433 134.477 110.526 133.673 111.444C132.869 112.362 132.962 113.759 133.88 114.562Z" fill="#27AE60"/>
<path d="M151.35 94.6084C152.268 95.4123 153.665 95.3196 154.468 94.4013C155.272 93.483 155.18 92.0868 154.261 91.2828C153.343 90.4789 151.947 90.5716 151.143 91.4899C150.339 92.4082 150.432 93.8044 151.35 94.6084Z" fill="#27AE60"/>
<path d="M168.818 74.6553C169.736 75.4592 171.132 75.3665 171.936 74.4482C172.74 73.5299 172.648 72.1337 171.729 71.3297C170.811 70.5258 169.415 70.6185 168.611 71.5368C167.807 72.4551 167.899 73.8513 168.818 74.6553Z" fill="#27AE60"/>
<path d="M1.66253 104.549C2.58085 105.353 3.97704 105.26 4.78099 104.342C5.58495 103.423 5.49223 102.027 4.57391 101.223C3.65558 100.419 2.2594 100.512 1.45544 101.43C0.651486 102.349 0.744201 103.745 1.66253 104.549Z" fill="#27AE60"/>
<path d="M21.6157 122.018C22.534 122.822 23.9302 122.729 24.7341 121.81C25.5381 120.892 25.4454 119.496 24.527 118.692C23.6087 117.888 22.2125 117.981 21.4086 118.899C20.6046 119.817 20.6973 121.214 21.6157 122.018Z" fill="#27AE60"/>
<path d="M41.5707 139.485C42.4891 140.289 43.8852 140.197 44.6892 139.278C45.4932 138.36 45.4004 136.964 44.4821 136.16C43.5638 135.356 42.1676 135.449 41.3636 136.367C40.5597 137.285 40.6524 138.681 41.5707 139.485Z" fill="#27AE60"/>
<path d="M61.5219 156.953C62.4402 157.757 63.8364 157.664 64.6404 156.746C65.4443 155.828 65.3516 154.432 64.4333 153.628C63.515 152.824 62.1188 152.916 61.3148 153.835C60.5109 154.753 60.6036 156.149 61.5219 156.953Z" fill="#27AE60"/>
<path d="M81.476 174.422C82.3943 175.226 83.7905 175.133 84.5945 174.215C85.3984 173.296 85.3057 171.9 84.3874 171.096C83.4691 170.292 82.0729 170.385 81.2689 171.303C80.465 172.222 80.5577 173.618 81.476 174.422Z" fill="#27AE60"/>
</g>
</g>
<defs>
<clipPath id="clip0_314_4216">
<rect width="173.481" height="176.796" fill="white"/>
</clipPath>
</defs>
</svg>
