<svg width="1443" height="911" viewBox="0 0 1443 911" fill="none" xmlns="http://www.w3.org/2000/svg">
<g clip-path="url(#clip0_384_361)">
<g filter="url(#filter0_f_384_361)">
<ellipse cx="721" cy="467" rx="745" ry="585" fill="#09C48C" fill-opacity="0.15"/>
</g>
</g>
<g clip-path="url(#clip1_384_361)">
<mask id="mask0_384_361" style="mask-type:luminance" maskUnits="userSpaceOnUse" x="-294" y="93" width="747" height="504">
<path d="M452.001 596.799H-293.829V93.7097H452.001V596.799Z" fill="white"/>
</mask>
<g mask="url(#mask0_384_361)">
<g opacity="0.2">
<path d="M-292.749 106.953L-293.829 107.147C-293.754 107.569 -285.953 149.894 -257.096 193.29C-240.144 218.784 -219.348 239.663 -195.285 255.343C-165.207 274.945 -129.918 286.434 -90.4012 289.487C-76.6304 290.551 -62.7326 291.538 -49.2888 292.494C106.097 303.529 252.867 313.952 324.069 451.548C364.166 529.039 446.669 592.792 508.821 632.63C576.138 675.776 634.74 700.942 635.324 701.189L635.756 700.185C635.172 699.935 576.64 674.8 509.397 631.697C447.366 591.937 365.028 528.319 325.044 451.047C292.411 387.986 243.176 347.486 170.093 323.593C105.171 302.366 30.1817 297.039 -49.212 291.401C-62.6508 290.447 -76.5499 289.46 -90.317 288.396C-179.382 281.511 -229.676 232.547 -256.184 192.683C-284.914 149.476 -292.674 107.375 -292.749 106.953Z" fill="#27AE60"/>
<path d="M-271.092 73.985L-272.185 74.0706C-272.148 74.551 -268.108 122.604 -241.735 169.787C-226.235 197.519 -206.169 219.535 -182.093 235.224C-151.999 254.836 -115.471 264.551 -73.7146 264.114C95.6265 262.3 254.263 274.531 333.149 441.392C350.709 478.712 378.734 513.768 416.446 545.583C446.599 571.024 482.981 594.46 524.575 615.243C595.388 650.626 657.617 666.247 658.236 666.398L658.501 665.339C657.883 665.185 595.752 649.588 525.047 614.256C459.825 581.664 373.764 525.14 334.142 440.926C298.906 366.394 245.277 317.278 170.188 290.772C96.864 264.891 9.62335 262.144 -73.7285 263.02C-74.624 263.028 -75.5258 263.035 -76.4137 263.035C-168.836 263.035 -216.771 212.185 -240.758 169.288C-267.026 122.309 -271.053 74.463 -271.092 73.985Z" fill="#27AE60"/>
<path d="M-249.438 41.0084H-250.535C-250.535 42.0296 -249.806 143.849 -187.112 201.003C-154.398 230.826 -110.633 243.524 -57.0344 238.736C158.883 219.447 274.547 275.227 342.228 431.237C359.637 471.654 388.296 507.338 427.411 537.302C458.689 561.258 496.681 581.631 540.334 597.852C614.641 625.464 680.494 631.536 681.15 631.594L681.249 630.504C680.592 630.446 614.864 624.383 540.692 596.818C472.285 571.394 382.497 521.955 343.236 430.804C307.249 347.854 256.271 293.003 187.385 263.123C125.681 236.353 47.988 228.258 -57.1338 237.646C-110.422 242.409 -153.897 229.803 -186.373 200.195C-248.713 143.363 -249.438 42.0246 -249.438 41.0084Z" fill="#27AE60"/>
<path d="M-228.883 7.95599C-228.958 9.1181 -235.499 124.827 -171.191 183.044C-139.26 211.952 -95.2417 222.145 -40.3597 213.358C165.668 180.342 279.151 240.524 351.31 421.087C368.568 464.596 397.864 500.913 438.382 529.023C470.78 551.496 510.385 568.802 556.091 580.458C633.89 600.297 703.367 596.809 704.057 596.779L703.997 595.685C703.312 595.728 633.973 599.192 556.337 579.391C484.742 561.129 391.232 518.773 352.33 420.682C333.756 374.202 312.912 336.749 288.609 306.18C264.071 275.316 236.586 252.189 204.583 235.479C142.114 202.863 64.2212 195.491 -40.5358 212.277C-95.0606 221.018 -138.779 210.907 -170.455 182.234C-234.375 124.367 -227.864 9.18225 -227.789 8.02393L-228.883 7.95599Z" fill="#27AE60"/>
<path d="M-207.234 -25.0937C-207.273 -24.7692 -210.941 7.91022 -206.452 47.4254C-202.303 83.932 -190.141 133.915 -155.76 164.711C-124.421 192.787 -79.9826 200.611 -23.692 187.977C82.1114 164.221 159.924 170.828 221.199 208.764C278.266 244.095 322.496 308.335 360.391 410.932C377.495 457.54 407.424 494.485 449.349 520.738C482.87 541.728 524.085 555.964 571.851 563.054C653.14 575.115 726.224 562.08 726.955 561.949L726.757 560.872C726.029 561.007 653.091 574.01 571.983 561.966C497.2 550.864 399.963 515.584 361.42 410.556C323.436 307.717 279.065 243.301 221.778 207.835C160.24 169.739 82.163 163.089 -23.9335 186.908C-79.8556 199.461 -123.966 191.725 -155.026 163.899C-189.146 133.339 -201.229 83.6364 -205.359 47.3273C-209.841 7.92908 -206.182 -24.6459 -206.146 -24.9704L-207.234 -25.0937Z" fill="#27AE60"/>
<path d="M-185.581 -58.1369C-185.639 -57.7759 -191.289 -21.605 -188.597 21.4066C-186.108 61.1544 -175.785 115.045 -140.731 146.061C-109.837 173.396 -64.8499 178.96 -7.02487 162.594C100.92 132.046 178.884 137.922 238.325 181.077C290.499 218.958 329.722 284.663 369.476 400.784C386.426 450.485 416.991 488.058 460.32 512.454C494.961 531.96 537.787 543.126 587.606 545.645C672.36 549.931 749.077 527.347 749.844 527.116L749.527 526.069C748.763 526.295 672.231 548.831 587.635 544.551C509.663 540.605 408.699 512.397 370.513 400.43C330.682 284.081 291.341 218.216 238.972 180.193C179.234 136.824 100.975 130.895 -7.32547 161.543C-64.7644 177.798 -109.406 172.312 -140.004 145.242C-174.778 114.476 -185.026 60.8815 -187.502 21.3387C-190.187 -21.5535 -184.555 -57.6073 -184.497 -57.9658L-185.581 -58.1369Z" fill="#27AE60"/>
<path d="M-163.929 -91.1755C-164.006 -90.7806 -171.68 -51.1334 -170.848 -4.66309C-170.079 38.2831 -161.678 96.0151 -126.027 127.15C-95.4735 153.834 -49.832 157.223 9.63687 137.213C101.483 106.313 169.092 104.467 222.406 131.404C295.516 168.344 336.359 257.982 378.561 390.632C395.975 445.377 428.846 484.388 476.258 506.583C538.829 535.874 616.111 530.423 669.928 520.689C728.205 510.149 772.282 492.458 772.72 492.28L772.307 491.268C771.871 491.445 727.881 509.098 669.709 519.617C616.061 529.315 539.03 534.757 476.721 505.591C429.598 483.531 396.925 444.743 379.606 390.303C337.319 257.378 296.354 167.542 222.904 130.426C169.311 103.346 101.433 105.175 9.28598 136.174C-49.7817 156.051 -95.066 152.731 -125.303 126.326C-160.654 95.4542 -168.986 38.0429 -169.751 -4.68317C-170.58 -51.0391 -162.929 -90.5718 -162.852 -90.9667L-163.929 -91.1755Z" fill="#27AE60"/>
</g>
</g>
</g>
<g clip-path="url(#clip2_384_361)">
<mask id="mask1_384_361" style="mask-type:luminance" maskUnits="userSpaceOnUse" x="821" y="-15" width="746" height="504">
<path d="M1566.83 488.089H821V-15.0002H1566.83V488.089Z" fill="white"/>
</mask>
<g mask="url(#mask1_384_361)">
<g opacity="0.2">
<path d="M822.08 -1.7558L821 -1.56213C821.075 -1.13953 828.876 41.1854 857.733 84.5806C874.685 110.075 895.481 130.954 919.544 146.634C949.622 166.236 984.911 177.725 1024.43 180.778C1038.2 181.842 1052.1 182.829 1065.54 183.785C1220.93 194.82 1367.7 205.243 1438.9 342.839C1479 420.33 1561.5 484.083 1623.65 523.921C1690.97 567.067 1749.57 592.233 1750.15 592.48L1750.59 591.476C1750 591.226 1691.47 566.091 1624.23 522.988C1562.2 483.228 1479.86 419.61 1439.87 342.338C1407.24 279.277 1358 238.777 1284.92 214.884C1220 193.657 1145.01 188.33 1065.62 182.692C1052.18 181.738 1038.28 180.751 1024.51 179.687C935.448 172.802 885.153 123.838 858.645 83.9744C829.915 40.7665 822.155 -1.33447 822.08 -1.7558Z" fill="#27AE60"/>
<path d="M843.737 -34.723L842.645 -34.6375C842.681 -34.157 846.721 13.8956 873.094 61.0791C888.595 88.8106 908.661 110.827 932.736 126.516C962.83 146.128 999.358 155.843 1041.11 155.406C1210.46 153.592 1369.09 165.823 1447.98 332.684C1465.54 370.004 1493.56 405.06 1531.28 436.875C1561.43 462.316 1597.81 485.752 1639.4 506.535C1710.22 541.918 1772.45 557.539 1773.07 557.69L1773.33 556.631C1772.71 556.477 1710.58 540.88 1639.88 505.548C1574.65 472.956 1488.59 416.432 1448.97 332.218C1413.74 257.686 1360.11 208.57 1285.02 182.064C1211.69 156.183 1124.45 153.436 1041.1 154.312C1040.21 154.32 1039.3 154.327 1038.42 154.327C945.993 154.327 898.058 103.477 874.071 60.5798C847.803 13.6013 843.776 -34.245 843.737 -34.723Z" fill="#27AE60"/>
<path d="M865.391 -67.6996H864.294C864.294 -66.6784 865.023 35.1406 927.717 92.2953C960.431 122.118 1004.2 134.816 1057.79 130.028C1273.71 110.739 1389.38 166.519 1457.06 322.529C1474.47 362.946 1503.13 398.63 1542.24 428.594C1573.52 452.55 1611.51 472.923 1655.16 489.144C1729.47 516.756 1795.32 522.828 1795.98 522.886L1796.08 521.796C1795.42 521.738 1729.69 515.675 1655.52 488.11C1587.11 462.686 1497.33 413.247 1458.06 322.096C1422.08 239.146 1371.1 184.295 1302.21 154.415C1240.51 127.645 1162.82 119.55 1057.7 128.938C1004.41 133.701 960.932 121.095 928.456 91.4865C866.116 34.6551 865.391 -66.6834 865.391 -67.6996Z" fill="#27AE60"/>
<path d="M885.946 -100.753C885.871 -99.5909 879.33 16.1184 943.638 74.3346C975.57 103.243 1019.59 113.436 1074.47 104.65C1280.5 71.633 1393.98 131.815 1466.14 312.378C1483.4 355.887 1512.69 392.204 1553.21 420.314C1585.61 442.787 1625.21 460.093 1670.92 471.749C1748.72 491.588 1818.2 488.101 1818.89 488.07L1818.83 486.976C1818.14 487.019 1748.8 490.483 1671.17 470.682C1599.57 452.42 1506.06 410.064 1467.16 311.973C1448.59 265.493 1427.74 228.04 1403.44 197.471C1378.9 166.607 1351.41 143.48 1319.41 126.77C1256.94 94.1538 1179.05 86.7823 1074.29 103.568C1019.77 112.309 976.05 102.198 944.374 73.5246C880.455 15.6581 886.965 -99.5267 887.04 -100.685L885.946 -100.753Z" fill="#27AE60"/>
<path d="M907.595 -133.803C907.556 -133.478 903.888 -100.799 908.377 -61.2836C912.526 -24.7769 924.688 25.2062 959.069 56.0015C990.409 84.0777 1034.85 91.9019 1091.14 79.2681C1196.94 55.5123 1274.75 62.1191 1336.03 100.055C1393.09 135.386 1437.33 199.626 1475.22 302.223C1492.32 348.831 1522.25 385.776 1564.18 412.029C1597.7 433.019 1638.91 447.255 1686.68 454.345C1767.97 466.406 1841.05 453.371 1841.78 453.24L1841.59 452.163C1840.86 452.298 1767.92 465.301 1686.81 453.257C1612.03 442.155 1514.79 406.875 1476.25 301.847C1438.26 199.008 1393.89 134.592 1336.61 99.1263C1275.07 61.0299 1196.99 54.3803 1090.9 78.1991C1034.97 90.7524 990.863 83.0162 959.803 55.1903C925.683 24.6302 913.6 -25.0725 909.47 -61.3817C904.989 -100.78 908.647 -133.355 908.684 -133.679L907.595 -133.803Z" fill="#27AE60"/>
<path d="M929.248 -166.846C929.19 -166.485 923.541 -130.314 926.233 -87.3024C928.721 -47.5546 939.044 6.3363 974.098 37.3517C1004.99 64.6871 1049.98 70.2513 1107.8 53.8845C1215.75 23.3369 1293.71 29.213 1353.15 72.368C1405.33 110.249 1444.55 175.954 1484.3 292.075C1501.26 341.776 1531.82 379.349 1575.15 403.745C1609.79 423.251 1652.62 434.417 1702.44 436.936C1787.19 441.222 1863.91 418.638 1864.67 418.407L1864.36 417.36C1863.59 417.586 1787.06 440.122 1702.46 435.842C1624.49 431.896 1523.53 403.688 1485.34 291.721C1445.51 175.372 1406.17 109.507 1353.8 71.4838C1294.06 28.115 1215.8 22.1861 1107.5 52.8343C1050.06 69.0891 1005.42 63.6029 974.825 36.533C940.051 5.76654 929.803 -47.8275 927.327 -87.3703C924.642 -130.262 930.274 -166.316 930.332 -166.675L929.248 -166.846Z" fill="#27AE60"/>
<path d="M950.9 -199.885C950.824 -199.49 943.149 -159.842 943.981 -113.372C944.75 -70.4258 953.152 -12.6938 988.802 18.4411C1019.36 45.1249 1065 48.5145 1124.47 28.5041C1216.31 -2.39563 1283.92 -4.24194 1337.23 22.6947C1410.35 59.6353 1451.19 149.273 1493.39 281.923C1510.8 336.668 1543.68 375.679 1591.09 397.874C1653.66 427.165 1730.94 421.714 1784.76 411.98C1843.03 401.44 1887.11 383.749 1887.55 383.571L1887.14 382.559C1886.7 382.736 1842.71 400.389 1784.54 410.908C1730.89 420.606 1653.86 426.048 1591.55 396.882C1544.43 374.822 1511.75 336.034 1494.44 281.594C1452.15 148.669 1411.18 58.8328 1337.73 21.7174C1284.14 -5.36261 1216.26 -3.53384 1124.12 27.4652C1065.05 47.3423 1019.76 44.0219 989.526 17.6173C954.175 -13.2548 945.843 -70.666 945.078 -113.392C944.249 -159.748 951.9 -199.281 951.977 -199.676L950.9 -199.885Z" fill="#27AE60"/>
</g>
</g>
</g>
<defs>
<filter id="filter0_f_384_361" x="-741.339" y="-835.339" width="2924.68" height="2604.68" filterUnits="userSpaceOnUse" color-interpolation-filters="sRGB">
<feFlood flood-opacity="0" result="BackgroundImageFix"/>
<feBlend mode="normal" in="SourceGraphic" in2="BackgroundImageFix" result="shape"/>
<feGaussianBlur stdDeviation="358.67" result="effect1_foregroundBlur_384_361"/>
</filter>
<clipPath id="clip0_384_361">
<rect width="1442" height="911" fill="white"/>
</clipPath>
<clipPath id="clip1_384_361">
<rect width="452" height="503" fill="white" transform="translate(0 94)"/>
</clipPath>
<clipPath id="clip2_384_361">
<rect width="622" height="453" fill="white" transform="translate(821 35)"/>
</clipPath>
</defs>
</svg>
