<svg width="884" height="655" viewBox="0 0 884 655" fill="none" xmlns="http://www.w3.org/2000/svg">
<g opacity="0.15">
<mask id="mask0_314_4831" style="mask-type:luminance" maskUnits="userSpaceOnUse" x="0" y="0" width="884" height="655">
<path d="M884 0H0V654.333H884V0Z" fill="white"/>
</mask>
<g mask="url(#mask0_314_4831)">
<path d="M-27.4742 520.009C-153.088 520.009 -255.282 406.544 -255.282 267.074C-255.282 127.605 -153.088 14.1387 -27.4742 14.1387C98.1386 14.1387 200.334 127.605 200.334 267.074C200.334 406.544 98.1386 520.009 -27.4742 520.009ZM-27.4742 20.2711C-150.044 20.2711 -249.759 130.987 -249.759 267.075C-249.759 403.163 -150.044 513.875 -27.4742 513.875C95.0941 513.875 194.814 403.162 194.814 267.075C194.814 130.986 95.0941 20.2711 -27.4742 20.2711Z" fill="#CED6DB"/>
<path d="M-27.4738 554.501C-170.217 554.501 -286.347 425.562 -286.347 267.076C-286.347 108.59 -170.219 -20.3477 -27.4738 -20.3477C115.269 -20.3477 231.401 108.589 231.401 267.076C231.401 425.561 115.269 554.501 -27.4738 554.501ZM-27.4738 2.64169C-158.797 2.64169 -265.639 121.267 -265.639 267.075C-265.639 412.882 -158.798 531.507 -27.4738 531.507C103.85 531.507 210.69 412.882 210.69 267.075C210.69 121.268 103.849 2.64169 -27.4738 2.64169Z" fill="#CED6DB"/>
<path d="M-27.4743 606.924C-196.252 606.924 -333.563 454.467 -333.563 267.076C-333.563 79.6823 -196.252 -72.7734 -27.4743 -72.7734C141.301 -72.7734 278.614 79.6823 278.614 267.076C278.614 454.467 141.301 606.924 -27.4743 606.924ZM-27.4743 -70.6338C-195.192 -70.6338 -331.636 80.8614 -331.636 267.076C-331.636 453.288 -195.192 604.785 -27.4743 604.785C140.241 604.785 276.688 453.288 276.688 267.076C276.688 80.8627 140.239 -70.6338 -27.4743 -70.6338Z" fill="#CED6DB"/>
<path d="M-27.4739 508.743C-147.492 508.743 -245.135 400.33 -245.135 267.075C-245.135 133.818 -147.492 25.4062 -27.4739 25.4062C92.5438 25.4062 190.187 133.818 190.187 267.075C190.187 400.33 92.5438 508.743 -27.4739 508.743ZM-27.4739 27.5446C-146.43 27.5446 -243.208 134.998 -243.208 267.074C-243.208 399.148 -146.431 506.603 -27.4739 506.603C91.4807 506.603 188.26 399.15 188.26 267.074C188.26 134.999 91.4807 27.5446 -27.4739 27.5446Z" fill="#CED6DB"/>
<path d="M154.577 289.872C165.919 178.242 93.6077 77.5388 -6.93481 64.9455C-107.477 52.3522 -198.178 132.638 -209.52 244.268C-220.862 355.898 -148.551 456.601 -48.0083 469.195C52.5342 481.788 143.235 401.503 154.577 289.872Z" fill="#CED6DB"/>
<path d="M-192.375 267.877C-192.375 166.758 -118.546 84.791 -27.4736 84.791C63.5995 84.791 137.43 166.759 137.43 267.877C137.43 368.997 63.5984 450.966 -27.4736 450.966C-118.546 450.966 -192.375 368.997 -192.375 267.877Z" fill="#DFE6EA"/>
<path d="M100.246 272.293C102.843 193.971 47.7648 128.141 -22.7758 125.257C-93.3165 122.373 -152.607 183.527 -155.205 261.848C-157.802 340.17 -102.724 406 -32.1831 408.884C38.3576 411.769 97.648 350.615 100.246 272.293Z" fill="#CED6DB"/>
<path d="M-142.522 267.635C-142.522 197.087 -91.0124 139.9 -27.474 139.9C36.0668 139.9 87.5733 197.087 87.5733 267.635C87.5733 338.182 36.0656 395.373 -27.474 395.373C-91.0124 395.373 -142.522 338.182 -142.522 267.635Z" fill="#EFF2F4"/>
<path d="M193.958 33.8252C190.823 37.3063 185.742 37.3037 182.606 33.8252C179.471 30.3442 179.471 24.6999 182.606 21.2202C185.742 17.7391 190.823 17.7391 193.958 21.2202C197.093 24.7012 197.093 30.3442 193.958 33.8252Z" fill="#CED6DB"/>
<path d="M182.607 512.931C179.472 509.453 179.472 503.809 182.607 500.328C185.743 496.847 190.824 496.847 193.959 500.328C197.094 503.809 197.094 509.453 193.959 512.931C190.824 516.412 185.743 516.412 182.607 512.931Z" fill="#CED6DB"/>
<path d="M3.30983 567.402L-1.37891 567.949L0.702065 589.938L5.3908 589.391L3.30983 567.402Z" fill="#CED6DB"/>
<path d="M12.7266 566.057L8.05762 566.785L10.8273 588.678L15.4962 587.95L12.7266 566.057Z" fill="#CED6DB"/>
<path d="M22.103 564.287L17.46 565.195L20.9146 586.967L25.5576 586.058L22.103 564.287Z" fill="#CED6DB"/>
<path d="M31.4268 562.194L26.8154 563.283L30.9594 584.909L35.5709 583.82L31.4268 562.194Z" fill="#CED6DB"/>
<path d="M40.6938 559.741L36.1191 561.008L40.9377 582.459L45.5123 581.192L40.6938 559.741Z" fill="#CED6DB"/>
<path d="M49.8218 556.912L45.29 558.355L50.7825 579.609L55.3143 578.165L49.8218 556.912Z" fill="#CED6DB"/>
<path d="M58.8743 553.717L54.3906 555.334L60.5432 576.358L65.0268 574.741L58.8743 553.717Z" fill="#CED6DB"/>
<path d="M67.8493 550.245L63.4189 552.036L70.231 572.811L74.6613 571.02L67.8493 550.245Z" fill="#CED6DB"/>
<path d="M76.6757 546.341L72.3047 548.303L79.7668 568.802L84.1377 566.841L76.6757 546.341Z" fill="#CED6DB"/>
<path d="M85.406 542.178L81.0986 544.307L89.198 564.507L93.5053 562.379L85.406 542.178Z" fill="#CED6DB"/>
<path d="M93.9871 537.589L89.75 539.885L98.4816 559.754L102.719 557.458L93.9871 537.589Z" fill="#CED6DB"/>
<path d="M102.406 532.757L98.2432 535.215L107.596 554.738L111.758 552.28L102.406 532.757Z" fill="#CED6DB"/>
<path d="M110.666 527.545L106.583 530.162L116.541 549.312L120.624 546.694L110.666 527.545Z" fill="#CED6DB"/>
<path d="M118.8 522.015L114.803 524.789L125.361 543.545L129.358 540.771L118.8 522.015Z" fill="#CED6DB"/>
<path d="M126.697 516.209L122.788 519.137L133.925 537.468L137.834 534.541L126.697 516.209Z" fill="#CED6DB"/>
<path d="M134.461 510.062L130.646 513.139L142.353 531.028L146.167 527.951L134.461 510.062Z" fill="#CED6DB"/>
<path d="M141.984 503.683L138.269 506.906L150.531 524.331L154.246 521.108L141.984 503.683Z" fill="#CED6DB"/>
<path d="M149.312 496.922L145.701 500.287L158.507 517.225L162.118 513.86L149.312 496.922Z" fill="#CED6DB"/>
<path d="M156.444 489.967L152.939 493.471L166.268 509.904L169.772 506.4L156.444 489.967Z" fill="#CED6DB"/>
<path d="M163.326 482.721L159.935 486.357L173.769 502.262L177.161 498.626L163.326 482.721Z" fill="#CED6DB"/>
<path d="M169.996 475.187L166.722 478.953L181.045 494.308L184.32 490.542L169.996 475.187Z" fill="#CED6DB"/>
<path d="M176.403 467.368L173.248 471.258L188.048 486.053L191.202 482.163L176.403 467.368Z" fill="#CED6DB"/>
<path d="M182.583 459.382L179.554 463.393L194.816 477.605L197.846 473.594L182.583 459.382Z" fill="#CED6DB"/>
<path d="M188.523 451.087L185.621 455.213L201.321 468.829L204.223 464.703L188.523 451.087Z" fill="#CED6DB"/>
<path d="M194.138 442.634L191.367 446.869L207.482 459.863L210.252 455.628L194.138 442.634Z" fill="#CED6DB"/>
<path d="M199.518 433.92L196.883 438.26L213.394 450.62L216.03 446.28L199.518 433.92Z" fill="#CED6DB"/>
<path d="M204.658 425.003L202.16 429.443L219.053 441.156L221.55 436.716L204.658 425.003Z" fill="#CED6DB"/>
<path d="M209.457 415.935L207.101 420.469L224.349 431.52L226.705 426.986L209.457 415.935Z" fill="#CED6DB"/>
<path d="M213.995 406.646L211.781 411.268L229.364 421.649L231.578 417.027L213.995 406.646Z" fill="#CED6DB"/>
<path d="M218.241 397.244L216.175 401.949L234.072 411.639L236.138 406.934L218.241 397.244Z" fill="#CED6DB"/>
<path d="M222.194 387.643L220.277 392.426L238.47 401.416L240.387 396.633L222.194 387.643Z" fill="#CED6DB"/>
<path d="M225.815 377.889L224.049 382.742L242.512 391.027L244.278 386.174L225.815 377.889Z" fill="#CED6DB"/>
<path d="M229.164 368.015L227.552 372.934L246.265 380.495L247.877 375.576L229.164 368.015Z" fill="#CED6DB"/>
<path d="M232.188 357.987L230.73 362.967L249.673 369.8L251.13 364.82L232.188 357.987Z" fill="#CED6DB"/>
<path d="M234.882 347.867L233.582 352.9L252.725 358.994L254.025 353.961L234.882 347.867Z" fill="#CED6DB"/>
<path d="M237.267 337.659L236.126 342.738L255.447 348.089L256.588 343.009L237.267 337.659Z" fill="#CED6DB"/>
<path d="M239.309 327.371L238.328 332.49L257.804 337.089L258.785 331.97L239.309 327.371Z" fill="#CED6DB"/>
<path d="M241.039 316.987L240.221 322.143L259.834 325.981L260.652 320.826L241.039 316.987Z" fill="#CED6DB"/>
<path d="M242.463 306.543L241.807 311.727L261.529 314.805L262.186 309.621L242.463 306.543Z" fill="#CED6DB"/>
<path d="M243.53 296.075L243.037 301.281L262.841 303.594L263.334 298.388L243.53 296.075Z" fill="#CED6DB"/>
<path d="M244.279 285.534L243.95 290.756L263.816 292.297L264.145 287.075L244.279 285.534Z" fill="#CED6DB"/>
<path d="M244.689 275.005L244.525 280.236L264.431 281.006L264.595 275.774L244.689 275.005Z" fill="#CED6DB"/>
<path d="M264.684 264.453H244.77V269.688H264.684V264.453Z" fill="#CED6DB"/>
<path d="M264.428 253.132L244.521 253.904L244.685 259.136L264.593 258.364L264.428 253.132Z" fill="#CED6DB"/>
<path d="M263.801 241.809L243.934 243.359L244.264 248.581L264.131 247.031L263.801 241.809Z" fill="#CED6DB"/>
<path d="M262.834 230.558L243.026 232.873L243.52 238.08L263.328 235.765L262.834 230.558Z" fill="#CED6DB"/>
<path d="M261.526 219.333L241.8 222.412L242.456 227.596L262.182 224.517L261.526 219.333Z" fill="#CED6DB"/>
<path d="M259.836 208.169L240.224 212.012L241.043 217.167L260.655 213.324L259.836 208.169Z" fill="#CED6DB"/>
<path d="M257.799 197.066L238.318 201.666L239.299 206.786L258.78 202.186L257.799 197.066Z" fill="#CED6DB"/>
<path d="M255.446 186.047L236.121 191.398L237.262 196.478L256.586 191.126L255.446 186.047Z" fill="#CED6DB"/>
<path d="M252.724 175.141L233.576 181.236L234.876 186.27L254.023 180.175L252.724 175.141Z" fill="#CED6DB"/>
<path d="M249.648 164.32L230.709 171.154L232.166 176.132L251.105 169.298L249.648 164.32Z" fill="#CED6DB"/>
<path d="M246.263 153.68L227.549 161.244L229.161 166.162L247.875 158.598L246.263 153.68Z" fill="#CED6DB"/>
<path d="M242.51 143.131L224.047 151.416L225.813 156.269L244.276 147.984L242.51 143.131Z" fill="#CED6DB"/>
<path d="M238.451 132.745L220.257 141.738L222.174 146.52L240.369 137.526L238.451 132.745Z" fill="#CED6DB"/>
<path d="M234.084 122.522L216.186 132.215L218.253 136.921L236.151 127.228L234.084 122.522Z" fill="#CED6DB"/>
<path d="M229.372 112.48L211.786 122.863L214 127.485L231.586 117.102L229.372 112.48Z" fill="#CED6DB"/>
<path d="M224.366 102.618L207.115 113.674L209.473 118.209L226.724 107.153L224.366 102.618Z" fill="#CED6DB"/>
<path d="M219.03 92.9602L202.139 104.68L204.638 109.12L221.529 97.4003L219.03 92.9602Z" fill="#CED6DB"/>
<path d="M213.419 83.4962L196.907 95.8652L199.545 100.206L216.057 87.8368L213.419 83.4962Z" fill="#CED6DB"/>
<path d="M207.5 74.2929L191.385 87.293L194.156 91.5278L210.271 78.5278L207.5 74.2929Z" fill="#CED6DB"/>
<path d="M201.287 65.3039L185.592 78.918L188.494 83.0429L204.19 69.4288L201.287 65.3039Z" fill="#CED6DB"/>
<path d="M194.805 56.5461L179.548 70.7617L182.578 74.7715L197.836 60.5558L194.805 56.5461Z" fill="#CED6DB"/>
<path d="M188.057 48.0608L173.257 62.8594L176.412 66.7493L191.212 51.9507L188.057 48.0608Z" fill="#CED6DB"/>
<path d="M181.041 39.8464L166.717 55.207L169.991 58.9714L184.316 43.6107L181.041 39.8464Z" fill="#CED6DB"/>
<path d="M173.771 31.9023L159.941 47.8145L163.333 51.4485L177.163 35.5363L173.771 31.9023Z" fill="#CED6DB"/>
<path d="M166.26 24.2461L152.939 40.6836L156.444 44.1851L169.765 27.7476L166.26 24.2461Z" fill="#CED6DB"/>
<path d="M158.507 16.8913L145.707 33.8359L149.319 37.1997L162.119 20.2551L158.507 16.8913Z" fill="#CED6DB"/>
<path d="M150.537 9.84474L138.273 27.2715L141.989 30.4945L154.252 13.0677L150.537 9.84474Z" fill="#CED6DB"/>
<path d="M142.338 3.10013L130.631 20.9902L134.445 24.0672L146.152 6.17707L142.338 3.10013Z" fill="#CED6DB"/>
<path d="M133.938 -3.31702L122.803 15.0176L126.712 17.9443L137.847 -0.390315L133.938 -3.31702Z" fill="#CED6DB"/>
<path d="M125.344 -9.4032L114.792 9.35156L118.791 12.1249L129.343 -6.62987L125.344 -9.4032Z" fill="#CED6DB"/>
<path d="M116.553 -15.1681L106.598 3.98242L110.682 6.59989L120.637 -12.5507L116.553 -15.1681Z" fill="#CED6DB"/>
<path d="M107.594 -20.5725L98.249 -1.04492L102.413 1.41118L111.757 -18.1164L107.594 -20.5725Z" fill="#CED6DB"/>
<path d="M808.133 387.045H800.761L789.641 374.234H797.011L808.133 387.045Z" fill="#B0B5B7"/>
<path d="M822.021 387.045H814.652L803.53 374.234H810.9L822.021 387.045Z" fill="#B0B5B7"/>
<path d="M835.912 387.045H828.543L817.422 374.234H824.791L835.912 387.045Z" fill="#B0B5B7"/>
<path d="M849.802 387.045H842.43L831.31 374.234H838.681L849.802 387.045Z" fill="#B0B5B7"/>
<path d="M863.691 387.045H856.322L845.2 374.234H852.569L863.691 387.045Z" fill="#B0B5B7"/>
<path d="M877.582 387.045H870.213L859.091 374.234H866.46L877.582 387.045Z" fill="#B0B5B7"/>
<path d="M891.472 387.045H884.101L872.981 374.234H880.348L891.472 387.045Z" fill="#B0B5B7"/>
<path d="M906.789 255.475H650.64L584.377 181.905H437.633L367.502 104.039H269.328C269.002 104.039 268.738 103.746 268.738 103.385C268.738 103.024 269.002 102.73 269.328 102.73H367.99L438.121 180.596H584.865L651.128 254.167H906.789C907.115 254.167 907.379 254.46 907.379 254.821C907.379 255.182 907.115 255.475 906.789 255.475Z" fill="#CED6DB"/>
<path d="M385.279 186.106H93.5102C93.1849 186.106 92.9209 185.813 92.9209 185.452C92.9209 185.091 93.1849 184.797 93.5102 184.797H384.789L468.135 92.2617H575.554L637.512 161.053H702.243L861.525 -15.7949C861.755 -16.0501 862.128 -16.0501 862.358 -15.7949C862.588 -15.5397 862.588 -15.1249 862.358 -14.8697L702.731 162.362H637.024L575.066 93.5703H468.623L385.279 186.106Z" fill="#B0B5B7"/>
<path d="M906.789 395.295H683.966L515.181 207.894H403.626L332.487 128.908H128.477C127.826 128.908 127.298 128.322 127.298 127.6C127.298 126.877 127.826 126.291 128.477 126.291H333.463L404.602 205.277H516.156L684.942 392.678H906.789C907.441 392.678 907.968 393.263 907.968 393.987C907.968 394.709 907.441 395.295 906.789 395.295Z" fill="#B0B5B7"/>
<path d="M684.548 357.491H497.155L362.585 208.078H173.266C172.941 208.078 172.677 207.785 172.677 207.424C172.677 207.063 172.941 206.77 173.266 206.77H363.073L497.643 356.183H684.06L814.869 210.947H935.523C935.848 210.947 936.112 211.24 936.112 211.601C936.112 211.962 935.848 212.255 935.523 212.255H815.358L684.548 357.491Z" fill="#B0B5B7"/>
<path d="M287.055 158.133H216.288C215.962 158.133 215.698 157.839 215.698 157.478C215.698 157.117 215.962 156.824 216.288 156.824H286.567L360.823 74.3778H486.642L537.914 131.305H660.598L796.069 -19.1094C796.299 -19.3646 796.673 -19.3646 796.902 -19.1094C797.132 -18.8542 797.132 -18.4394 796.902 -18.1842L661.086 132.614H537.427L486.155 75.6865H361.311L287.055 158.133Z" fill="#CED6DB"/>
<path d="M716.875 432.482H630.376L486.989 273.279H306.43L263.778 225.922H87.2231C86.8978 225.922 86.6338 225.629 86.6338 225.268C86.6338 224.906 86.8978 224.613 87.2231 224.613H264.267L306.92 271.97H487.477L630.864 431.172H716.387L805.951 331.73H906.789C907.114 331.73 907.378 332.023 907.378 332.385C907.378 332.746 907.114 333.039 906.789 333.039H806.438L716.875 432.482Z" fill="#B0B5B7"/>
<path d="M270.798 81.1379H177.981C177.331 81.1379 176.803 80.5516 176.803 79.8292C176.803 79.1068 177.331 78.5206 177.981 78.5206H269.822L322.468 20.0663H523.628L563.308 -23.9912C563.768 -24.5029 564.513 -24.5029 564.974 -23.9912C565.435 -23.4795 565.435 -22.6525 564.974 -22.1408L524.604 22.6824H323.444L270.798 81.1379Z" fill="#B0B5B7"/>
<path d="M-15.7136 309.942C-16.0154 309.942 -16.3171 309.814 -16.5469 309.559C-17.0078 309.047 -17.0078 308.22 -16.5469 307.708L47.213 236.916H248.507L303.997 298.525H404.482C405.133 298.525 405.661 299.112 405.661 299.834C405.661 300.556 405.133 301.143 404.482 301.143H303.02L247.53 239.533H48.189L-14.8803 309.559C-15.1101 309.815 -15.4119 309.942 -15.7136 309.942Z" fill="#B0B5B7"/>
<path d="M233.967 104.039H147.091L99.2573 50.9298H-15.7134C-16.0387 50.9298 -16.3027 50.6366 -16.3027 50.2754C-16.3027 49.9142 -16.0387 49.6211 -15.7134 49.6211H99.7453L147.579 102.731H233.967C234.292 102.731 234.556 103.024 234.556 103.385C234.556 103.746 234.292 104.039 233.967 104.039Z" fill="#B0B5B7"/>
<path d="M177.981 158.132H114.088L51.7166 88.8809H-25.9292C-26.2545 88.8809 -26.5186 88.5878 -26.5186 88.2266C-26.5186 87.8654 -26.2545 87.5723 -25.9292 87.5723H52.2046L114.576 156.823H177.981C178.307 156.823 178.571 157.116 178.571 157.477C178.571 157.839 178.307 158.132 177.981 158.132Z" fill="#B0B5B7"/>
<path d="M94.1616 185.988C94.0107 185.988 93.8598 185.924 93.7443 185.797L39.1344 125.162H-25.9292C-26.2545 125.162 -26.5186 124.869 -26.5186 124.508C-26.5186 124.147 -26.2545 123.854 -25.9292 123.854H39.6223L94.5777 184.87C94.8075 185.125 94.8075 185.54 94.5777 185.795C94.4633 185.924 94.3125 185.988 94.1616 185.988Z" fill="#B0B5B7"/>
<path d="M746.328 208.734H663.886C663.234 208.734 662.707 208.148 662.707 207.425C662.707 206.703 663.234 206.116 663.886 206.116H745.352L814.922 128.871H851.123C851.775 128.871 852.301 129.457 852.301 130.18C852.301 130.902 851.775 131.488 851.123 131.488H815.898L746.328 208.734Z" fill="#B0B5B7"/>
<path d="M716.631 441.097C712.028 441.097 708.282 436.938 708.282 431.828C708.282 426.718 712.028 422.559 716.631 422.559C721.233 422.559 724.979 426.718 724.979 431.828C724.979 436.938 721.233 441.097 716.631 441.097ZM716.631 423.867C712.677 423.867 709.461 427.437 709.461 431.828C709.461 436.217 712.677 439.789 716.631 439.789C720.584 439.789 723.801 436.218 723.801 431.828C723.801 427.437 720.584 423.867 716.631 423.867Z" fill="#CED6DB"/>
<path d="M716.63 437.864C719.633 437.864 722.066 435.162 722.066 431.829C722.066 428.495 719.633 425.793 716.63 425.793C713.628 425.793 711.194 428.495 711.194 431.829C711.194 435.162 713.628 437.864 716.63 437.864Z" fill="#CED6DB"/>
<path d="M650.676 264.091C646.073 264.091 642.327 259.934 642.327 254.822C642.327 249.71 646.073 245.553 650.676 245.553C655.278 245.553 659.024 249.71 659.024 254.822C659.024 259.934 655.278 264.091 650.676 264.091ZM650.676 246.861C646.721 246.861 643.506 250.433 643.506 254.822C643.506 259.211 646.721 262.783 650.676 262.783C654.629 262.783 657.845 259.211 657.845 254.822C657.845 250.433 654.63 246.861 650.676 246.861Z" fill="#CED6DB"/>
<path d="M650.676 260.858C653.678 260.858 656.112 258.156 656.112 254.823C656.112 251.489 653.678 248.787 650.676 248.787C647.674 248.787 645.24 251.489 645.24 254.823C645.24 258.156 647.674 260.858 650.676 260.858Z" fill="#CED6DB"/>
<path d="M655.438 216.693C650.836 216.693 647.09 212.535 647.09 207.424C647.09 202.312 650.836 198.154 655.438 198.154C660.041 198.154 663.787 202.312 663.787 207.424C663.787 212.535 660.041 216.693 655.438 216.693ZM655.438 199.463C651.485 199.463 648.269 203.034 648.269 207.424C648.269 211.813 651.485 215.384 655.438 215.384C659.392 215.384 662.608 211.813 662.608 207.424C662.608 203.034 659.392 199.463 655.438 199.463Z" fill="#CED6DB"/>
<path d="M655.439 213.46C658.441 213.46 660.875 210.758 660.875 207.424C660.875 204.091 658.441 201.389 655.439 201.389C652.437 201.389 650.003 204.091 650.003 207.424C650.003 210.758 652.437 213.46 655.439 213.46Z" fill="#CED6DB"/>
<path d="M568.435 207.424C568.435 210.757 566.002 213.46 562.999 213.46C559.997 213.46 557.563 210.757 557.563 207.424C557.563 204.091 559.999 201.389 562.999 201.389C566 201.389 568.435 204.091 568.435 207.424Z" fill="#CED6DB"/>
<path d="M849.021 309.395C852.023 309.395 854.457 306.693 854.457 303.36C854.457 300.026 852.023 297.324 849.021 297.324C846.019 297.324 843.585 300.026 843.585 303.36C843.585 306.693 846.019 309.395 849.021 309.395Z" fill="#CED6DB"/>
<path d="M502.213 102.945C497.61 102.945 493.864 98.7872 493.864 93.6755C493.864 88.5639 497.61 84.4062 502.213 84.4062C506.815 84.4062 510.561 88.5639 510.561 93.6755C510.561 98.7872 506.815 102.945 502.213 102.945ZM502.213 85.7149C498.258 85.7149 495.043 89.2863 495.043 93.6755C495.043 98.0648 498.258 101.636 502.213 101.636C506.166 101.636 509.383 98.0648 509.383 93.6755C509.383 89.2863 506.167 85.7149 502.213 85.7149Z" fill="#CED6DB"/>
<path d="M502.212 99.7118C505.215 99.7118 507.648 97.0095 507.648 93.6762C507.648 90.3428 505.215 87.6406 502.212 87.6406C499.21 87.6406 496.776 90.3428 496.776 93.6762C496.776 97.0095 499.21 99.7118 502.212 99.7118Z" fill="#CED6DB"/>
<path d="M412.929 309.287C408.325 309.287 404.58 305.129 404.58 300.017C404.58 294.906 408.325 290.748 412.929 290.748C417.532 290.748 421.277 294.906 421.277 300.017C421.277 305.129 417.532 309.287 412.929 309.287ZM412.929 292.057C408.975 292.057 405.759 295.628 405.759 300.017C405.759 304.407 408.975 307.978 412.929 307.978C416.882 307.978 420.098 304.407 420.098 300.017C420.098 295.628 416.882 292.057 412.929 292.057Z" fill="#B0B5B7"/>
<path d="M412.928 306.054C415.93 306.054 418.364 303.351 418.364 300.018C418.364 296.685 415.93 293.982 412.928 293.982C409.926 293.982 407.492 296.685 407.492 300.018C407.492 303.351 409.926 306.054 412.928 306.054Z" fill="#B0B5B7"/>
<path d="M261.567 112.654C256.963 112.654 253.219 108.496 253.219 103.385C253.219 98.2729 256.963 94.1152 261.567 94.1152C266.171 94.1152 269.916 98.2729 269.916 103.385C269.916 108.496 266.171 112.654 261.567 112.654ZM261.567 95.4239C257.614 95.4239 254.397 98.9953 254.397 103.385C254.397 107.774 257.614 111.345 261.567 111.345C265.521 111.345 268.737 107.774 268.737 103.385C268.737 98.9953 265.521 95.4239 261.567 95.4239Z" fill="#CED6DB"/>
<path d="M261.567 109.421C264.569 109.421 267.003 106.719 267.003 103.385C267.003 100.052 264.569 97.3496 261.567 97.3496C258.565 97.3496 256.131 100.052 256.131 103.385C256.131 106.719 258.565 109.421 261.567 109.421Z" fill="#CED6DB"/>
<path d="M171.903 86.3396C168.67 86.3396 166.039 83.4186 166.039 79.829C166.039 76.2393 168.67 73.3184 171.903 73.3184C175.136 73.3184 177.767 76.2393 177.767 79.829C177.767 83.4186 175.136 86.3396 171.903 86.3396ZM171.903 74.627C169.319 74.627 167.218 76.9604 167.218 79.829C167.218 82.6976 169.319 85.0309 171.903 85.0309C174.487 85.0309 176.588 82.6976 176.588 79.829C176.588 76.9604 174.487 74.627 171.903 74.627Z" fill="#B0B5B7"/>
<path d="M175.599 79.8292C175.599 82.0945 173.944 83.9319 171.904 83.9319C169.864 83.9319 168.209 82.0945 168.209 79.8292C168.209 77.5639 169.864 75.7266 171.904 75.7266C173.944 75.7266 175.599 77.5639 175.599 79.8292Z" fill="#B0B5B7"/>
<path d="M51.9605 94.738C48.7275 94.738 46.0967 91.8171 46.0967 88.2274C46.0967 84.6377 48.7275 81.7168 51.9605 81.7168C55.1936 81.7168 57.8244 84.6377 57.8244 88.2274C57.8244 91.8171 55.1936 94.738 51.9605 94.738ZM51.9605 83.0255C49.3769 83.0255 47.2753 85.3588 47.2753 88.2274C47.2753 91.096 49.3769 93.4294 51.9605 93.4294C54.5442 93.4294 56.6457 91.096 56.6457 88.2274C56.6457 85.3588 54.5442 83.0255 51.9605 83.0255Z" fill="#B0B5B7"/>
<path d="M55.6559 88.2277C55.6559 90.493 54.001 92.3303 51.9607 92.3303C49.9205 92.3303 48.2656 90.493 48.2656 88.2277C48.2656 85.9624 49.9205 84.125 51.9607 84.125C54.001 84.125 55.6559 85.9624 55.6559 88.2277Z" fill="#B0B5B7"/>
<path d="M167.661 213.935C164.428 213.935 161.797 211.014 161.797 207.425C161.797 203.835 164.428 200.914 167.661 200.914C170.894 200.914 173.525 203.835 173.525 207.425C173.525 211.014 170.894 213.935 167.661 213.935ZM167.661 202.223C165.077 202.223 162.976 204.556 162.976 207.425C162.976 210.293 165.077 212.627 167.661 212.627C170.244 212.627 172.346 210.293 172.346 207.425C172.346 204.556 170.243 202.223 167.661 202.223Z" fill="#B0B5B7"/>
<path d="M171.356 207.425C171.356 209.69 169.701 211.528 167.661 211.528C165.621 211.528 163.966 209.69 163.966 207.425C163.966 205.16 165.621 203.322 167.661 203.322C169.701 203.322 171.356 205.16 171.356 207.425Z" fill="#B0B5B7"/>
<path d="M81.9478 231.779C78.7148 231.779 76.084 228.858 76.084 225.268C76.084 221.679 78.7148 218.758 81.9478 218.758C85.1809 218.758 87.8117 221.679 87.8117 225.268C87.8117 228.858 85.1809 231.779 81.9478 231.779ZM81.9478 220.066C79.3642 220.066 77.2627 222.4 77.2627 225.268C77.2627 228.137 79.3642 230.47 81.9478 230.47C84.5315 230.47 86.633 228.137 86.633 225.268C86.633 222.4 84.5315 220.066 81.9478 220.066Z" fill="#B0B5B7"/>
<path d="M85.6432 225.269C85.6432 227.535 83.9883 229.371 81.9481 229.371C79.9078 229.371 78.2529 227.534 78.2529 225.269C78.2529 223.003 79.9078 221.166 81.9481 221.166C83.9883 221.166 85.6432 223.002 85.6432 225.269Z" fill="#B0B5B7"/>
<path d="M335.529 110.691C339.163 110.691 342.109 107.42 342.109 103.384C342.109 99.3493 339.163 96.0781 335.529 96.0781C331.894 96.0781 328.948 99.3493 328.948 103.384C328.948 107.42 331.894 110.691 335.529 110.691Z" fill="#CED6DB"/>
<path d="M851.72 130.658C851.885 126.627 849.075 123.211 845.445 123.028C841.814 122.845 838.737 125.965 838.573 129.996C838.408 134.027 841.218 137.443 844.848 137.626C848.479 137.809 851.556 134.689 851.72 130.658Z" fill="#CED6DB"/>
<path d="M782.623 254.822C782.623 258.857 779.676 262.128 776.042 262.128C772.409 262.128 769.462 258.857 769.462 254.822C769.462 250.787 772.409 247.516 776.042 247.516C779.676 247.516 782.623 250.787 782.623 254.822Z" fill="#CED6DB"/>
<path d="M754.717 393.987C754.717 396.629 752.788 398.77 750.408 398.77C748.028 398.77 746.099 396.628 746.099 393.987C746.099 391.343 748.029 389.201 750.408 389.201C752.788 389.201 754.717 391.345 754.717 393.987Z" fill="#CED6DB"/>
<path d="M567.309 356.839C567.309 359.479 565.379 361.622 563 361.622C560.62 361.622 558.69 359.479 558.69 356.839C558.69 354.195 560.621 352.053 563 352.053C565.379 352.053 567.309 354.195 567.309 356.839Z" fill="#CED6DB"/>
<path d="M610.601 139.406C614.235 139.406 617.181 136.134 617.181 132.099C617.181 128.064 614.235 124.793 610.601 124.793C606.967 124.793 604.021 128.064 604.021 132.099C604.021 136.134 606.967 139.406 610.601 139.406Z" fill="#CED6DB"/>
<path d="M685.249 133.526C685.249 136.371 683.172 138.677 680.611 138.677C678.048 138.677 675.972 136.371 675.972 133.526C675.972 130.681 678.048 128.375 680.611 128.375C683.172 128.375 685.249 130.681 685.249 133.526Z" fill="#CED6DB"/>
<path d="M701.824 142.706C701.824 145.716 699.625 148.157 696.915 148.157C694.205 148.157 692.006 145.716 692.006 142.706C692.006 139.697 694.205 137.256 696.915 137.256C699.624 137.256 701.824 139.697 701.824 142.706Z" fill="#B0B5B7"/>
<path d="M421.963 282.289C426.737 282.289 430.607 277.992 430.607 272.692C430.607 267.392 426.737 263.096 421.963 263.096C417.19 263.096 413.32 267.392 413.32 272.692C413.32 277.992 417.19 282.289 421.963 282.289Z" fill="#B0B5B7"/>
<path d="M650.79 366.433C655.563 366.433 659.433 362.137 659.433 356.837C659.433 351.537 655.563 347.24 650.79 347.24C646.016 347.24 642.146 351.537 642.146 356.837C642.146 362.137 646.016 366.433 650.79 366.433Z" fill="#CED6DB"/>
<path d="M388.961 185.452C388.961 187.922 387.158 189.924 384.934 189.924C382.71 189.924 380.906 187.922 380.906 185.452C380.906 182.983 382.71 180.98 384.934 180.98C387.158 180.982 388.961 182.984 388.961 185.452Z" fill="#CED6DB"/>
<path d="M251.697 238.226C251.697 240.695 249.893 242.697 247.669 242.697C245.445 242.697 243.642 240.695 243.642 238.226C243.642 235.756 245.445 233.754 247.669 233.754C249.893 233.754 251.697 235.756 251.697 238.226Z" fill="#B0B5B7"/>
<path d="M413.356 163.969C408.427 163.969 404.416 159.517 404.416 154.044C404.416 148.571 408.426 144.119 413.356 144.119C418.285 144.119 422.295 148.571 422.295 154.044C422.296 159.517 418.285 163.969 413.356 163.969ZM413.356 145.426C409.076 145.426 405.595 149.292 405.595 154.043C405.595 158.795 409.076 162.659 413.356 162.659C417.636 162.659 421.117 158.793 421.117 154.043C421.118 149.292 417.636 145.426 413.356 145.426Z" fill="#CED6DB"/>
<path d="M419.128 154.042C419.128 157.581 416.543 160.449 413.356 160.449C410.169 160.449 407.585 157.579 407.585 154.042C407.585 150.503 410.17 147.635 413.356 147.635C416.542 147.635 419.128 150.505 419.128 154.042Z" fill="#CED6DB"/>
<path d="M216.287 164.784C219.921 164.784 222.867 161.513 222.867 157.478C222.867 153.443 219.921 150.172 216.287 150.172C212.652 150.172 209.706 153.443 209.706 157.478C209.706 161.513 212.652 164.784 216.287 164.784Z" fill="#B0B5B7"/>
<path d="M177.981 164.784C181.615 164.784 184.561 161.513 184.561 157.478C184.561 153.443 181.615 150.172 177.981 150.172C174.347 150.172 171.4 153.443 171.4 157.478C171.4 161.513 174.347 164.784 177.981 164.784Z" fill="#B0B5B7"/>
<path d="M94.1616 192.64C97.7959 192.64 100.742 189.369 100.742 185.334C100.742 181.298 97.7959 178.027 94.1616 178.027C90.5272 178.027 87.5811 181.298 87.5811 185.334C87.5811 189.369 90.5272 192.64 94.1616 192.64Z" fill="#B0B5B7"/>
<path d="M45.1219 124.507C45.1219 128.542 42.1753 131.814 38.5414 131.814C34.9076 131.814 31.9609 128.542 31.9609 124.507C31.9609 120.473 34.9076 117.201 38.5414 117.201C42.1753 117.201 45.1219 120.473 45.1219 124.507Z" fill="#B0B5B7"/>
<path d="M313.822 130.435C315.232 130.435 316.376 129.166 316.376 127.6C316.376 126.033 315.232 124.764 313.822 124.764C312.411 124.764 311.268 126.033 311.268 127.6C311.268 129.166 312.411 130.435 313.822 130.435Z" fill="#CED6DB"/>
<path d="M367.648 108.401C370.143 108.401 372.166 106.156 372.166 103.385C372.166 100.615 370.143 98.3691 367.648 98.3691C365.153 98.3691 363.13 100.615 363.13 103.385C363.13 106.156 365.153 108.401 367.648 108.401Z" fill="#CED6DB"/>
<path d="M237.405 108.401C239.9 108.401 241.922 106.156 241.922 103.385C241.922 100.615 239.9 98.3691 237.405 98.3691C234.909 98.3691 232.887 100.615 232.887 103.385C232.887 106.156 234.909 108.401 237.405 108.401Z" fill="#B0B5B7"/>
<path d="M128.476 132.616C130.971 132.616 132.994 130.37 132.994 127.6C132.994 124.83 130.971 122.584 128.476 122.584C125.981 122.584 123.958 124.83 123.958 127.6C123.958 130.37 125.981 132.616 128.476 132.616Z" fill="#B0B5B7"/>
<path d="M623.909 50.9298H253.808C253.483 50.9298 253.219 50.6366 253.219 50.2754C253.219 49.9142 253.483 49.6211 253.808 49.6211H623.909C624.235 49.6211 624.499 49.9142 624.499 50.2754C624.499 50.6366 624.235 50.9298 623.909 50.9298Z" fill="#CED6DB"/>
<path d="M250.468 55.292C252.963 55.292 254.986 53.0462 254.986 50.2759C254.986 47.5056 252.963 45.2598 250.468 45.2598C247.973 45.2598 245.95 47.5056 245.95 50.2759C245.95 53.0462 247.973 55.292 250.468 55.292Z" fill="#CED6DB"/>
<path d="M623.91 55.2927C626.405 55.2927 628.429 53.0463 628.429 50.2752C628.429 47.5042 626.405 45.2578 623.91 45.2578C621.414 45.2578 619.391 47.5042 619.391 50.2752C619.391 53.0463 621.414 55.2927 623.91 55.2927Z" fill="#CED6DB"/>
<path d="M681.572 132.754C681.421 132.754 681.27 132.689 681.155 132.563C680.925 132.307 680.925 131.893 681.155 131.637L818.455 -20.8067C818.685 -21.0618 819.059 -21.0618 819.289 -20.8067C819.518 -20.5515 819.518 -20.1366 819.289 -19.8814L681.988 132.561C681.874 132.689 681.723 132.754 681.572 132.754Z" fill="#CED6DB"/>
<path d="M698.644 141.241C698.493 141.241 698.342 141.177 698.228 141.05C697.998 140.795 697.998 140.38 698.228 140.125L835.527 -12.3203C835.757 -12.5755 836.131 -12.5755 836.361 -12.3203C836.59 -12.0651 836.59 -11.6503 836.361 -11.3951L699.061 141.049C698.946 141.177 698.795 141.241 698.644 141.241Z" fill="#B0B5B7"/>
<path d="M846.911 304.016H649.161L562.583 207.886C562.353 207.631 562.353 207.216 562.583 206.961C562.812 206.706 563.186 206.706 563.416 206.961L649.649 302.707H846.911C847.236 302.707 847.5 303 847.5 303.361C847.5 303.722 847.238 304.016 846.911 304.016Z" fill="#CED6DB"/>
<path d="M425.017 226.268H417.647L406.526 213.459H413.895L425.017 226.268Z" fill="#CED6DB"/>
<path d="M438.907 226.268H431.538L420.416 213.459H427.786L438.907 226.268Z" fill="#CED6DB"/>
<path d="M452.798 226.268H445.427L434.307 213.459H441.676L452.798 226.268Z" fill="#CED6DB"/>
<path d="M466.686 226.268H459.316L448.195 213.459H455.566L466.686 226.268Z" fill="#CED6DB"/>
<path d="M480.577 226.268H473.208L462.085 213.459H469.455L480.577 226.268Z" fill="#CED6DB"/>
<path d="M494.468 226.268H487.097L475.976 213.459H483.345L494.468 226.268Z" fill="#CED6DB"/>
<path d="M508.357 226.268H500.987L489.866 213.459H497.234L508.357 226.268Z" fill="#CED6DB"/>
<path d="M522.247 226.268H514.876L503.757 213.459H511.126L522.247 226.268Z" fill="#CED6DB"/>
<path d="M290.114 344.155H276.445L255.82 320.398H269.487L290.114 344.155Z" fill="#CED6DB"/>
<path d="M315.874 344.155H302.206L281.579 320.398H295.248L315.874 344.155Z" fill="#CED6DB"/>
<path d="M341.635 344.155H327.967L307.34 320.398H321.009L341.635 344.155Z" fill="#CED6DB"/>
<path d="M367.395 344.155H353.726L333.101 320.398H346.77L367.395 344.155Z" fill="#CED6DB"/>
<path d="M393.155 344.155H379.488L358.86 320.398H372.529L393.155 344.155Z" fill="#CED6DB"/>
<path d="M418.918 344.155H405.249L384.622 320.398H398.29L418.918 344.155Z" fill="#CED6DB"/>
<path d="M444.678 344.155H431.008L410.385 320.398H424.049L444.678 344.155Z" fill="#CED6DB"/>
<path d="M470.437 344.155H456.768L436.145 320.398H449.811L470.437 344.155Z" fill="#CED6DB"/>
<path d="M728.224 18.7582H741.893L762.517 -4.99805H748.849L728.224 18.7582Z" fill="#CED6DB"/>
<path d="M702.464 18.7582H716.132L736.757 -4.99805H723.089L702.464 18.7582Z" fill="#CED6DB"/>
<path d="M676.701 18.7582H690.37L710.996 -4.99805H697.328L676.701 18.7582Z" fill="#CED6DB"/>
<path d="M650.941 18.7582H664.609L685.235 -4.99805H671.568L650.941 18.7582Z" fill="#CED6DB"/>
<path d="M625.182 18.7582H638.848L659.476 -4.99805H645.807L625.182 18.7582Z" fill="#CED6DB"/>
<path d="M599.42 18.7582H613.088L633.714 -4.99805H620.048L599.42 18.7582Z" fill="#CED6DB"/>
<path d="M573.659 18.7582H587.329L607.952 -4.99805H594.288L573.659 18.7582Z" fill="#CED6DB"/>
<path d="M547.9 18.7582H561.568L582.191 -4.99805H568.526L547.9 18.7582Z" fill="#CED6DB"/>
<path d="M52.576 279.972H60.9505L72.6723 267.798L59.549 254.168H51.1758L64.2991 267.798L52.576 279.972Z" fill="#B0B5B7"/>
<path d="M65.6526 279.972H74.027L85.7477 267.798L72.6244 254.168H64.25L77.3745 267.798L65.6526 279.972Z" fill="#B0B5B7"/>
<path d="M78.7257 279.972H87.1001L98.8219 267.798L85.6986 254.168H77.3242L90.4475 267.798L78.7257 279.972Z" fill="#B0B5B7"/>
<path d="M91.8009 279.972H100.175L111.897 267.798L98.7738 254.168H90.3994L103.523 267.798L91.8009 279.972Z" fill="#B0B5B7"/>
<path d="M104.876 279.972H113.25L124.971 267.798L111.849 254.168H103.475L116.598 267.798L104.876 279.972Z" fill="#B0B5B7"/>
<path d="M117.951 279.972H126.326L138.046 267.798L124.923 254.168H116.55L129.673 267.798L117.951 279.972Z" fill="#B0B5B7"/>
<path d="M131.025 279.972H139.4L151.121 267.798L137.997 254.168H129.624L142.746 267.798L131.025 279.972Z" fill="#B0B5B7"/>
<path d="M144.1 279.972H152.474L164.196 267.798L151.073 254.168H142.698L155.822 267.798L144.1 279.972Z" fill="#B0B5B7"/>
<path d="M157.175 279.972H165.549L177.271 267.798L164.148 254.168H155.773L168.897 267.798L157.175 279.972Z" fill="#B0B5B7"/>
<path d="M170.249 279.972H178.624L190.345 267.798L177.221 254.168H168.848L181.971 267.798L170.249 279.972Z" fill="#B0B5B7"/>
<path d="M183.324 279.972H191.699L203.419 267.798L190.296 254.168H181.923L195.046 267.798L183.324 279.972Z" fill="#B0B5B7"/>
<path d="M573.121 84.0033H580.058L589.765 73.9201L578.897 62.6328H571.961L582.829 73.9201L573.121 84.0033Z" fill="#CED6DB"/>
<path d="M583.951 84.0033H590.886L600.594 73.9201L589.726 62.6328H582.789L593.659 73.9201L583.951 84.0033Z" fill="#CED6DB"/>
<path d="M594.779 84.0033H601.716L611.423 73.9201L600.556 62.6328H593.618L604.488 73.9201L594.779 84.0033Z" fill="#CED6DB"/>
<path d="M605.609 84.0033H612.543L622.252 73.9201L611.384 62.6328H604.447L615.317 73.9201L605.609 84.0033Z" fill="#CED6DB"/>
<path d="M616.437 84.0033H623.374L633.081 73.9201L622.213 62.6328H615.277L626.146 73.9201L616.437 84.0033Z" fill="#CED6DB"/>
<path d="M627.268 84.0033H634.202L643.91 73.9201L633.041 62.6328H626.105L636.975 73.9201L627.268 84.0033Z" fill="#CED6DB"/>
<path d="M638.094 84.0033H645.031L654.738 73.9201L643.87 62.6328H636.935L647.803 73.9201L638.094 84.0033Z" fill="#CED6DB"/>
<path d="M648.926 84.0033H655.86L665.569 73.9201L654.699 62.6328H647.764L658.632 73.9201L648.926 84.0033Z" fill="#CED6DB"/>
<path d="M659.753 84.0033H666.689L676.398 73.9201L665.528 62.6328H658.593L669.46 73.9201L659.753 84.0033Z" fill="#CED6DB"/>
<path d="M670.582 84.0033H677.517L687.226 73.9201L676.356 62.6328H669.421L680.289 73.9201L670.582 84.0033Z" fill="#CED6DB"/>
<path d="M681.41 84.0033H688.347L698.055 73.9201L687.186 62.6328H680.251L691.118 73.9201L681.41 84.0033Z" fill="#CED6DB"/>
</g>
</g>
</svg>
