<svg width="155" height="171" viewBox="0 0 155 171" fill="none" xmlns="http://www.w3.org/2000/svg">
<g opacity="0.05" clip-path="url(#clip0_314_4540)">
<mask id="mask0_314_4540" style="mask-type:luminance" maskUnits="userSpaceOnUse" x="-51" y="0" width="206" height="208">
<path d="M155 0H-51V207.151H155V0Z" fill="white"/>
</mask>
<g mask="url(#mask0_314_4540)">
<path d="M8.84362 15.5356C8.84362 10.7687 4.97927 6.9043 0.212339 6.9043C-4.55459 6.9043 -8.41895 10.7687 -8.41895 15.5356C-8.41895 20.3025 -4.55459 24.1669 0.212339 24.1669C4.97927 24.1669 8.84362 20.3025 8.84362 15.5356Z" fill="#7B7E7D"/>
<path d="M44.5184 15.5356C44.5184 10.7687 40.6541 6.9043 35.8871 6.9043C31.1202 6.9043 27.2559 10.7687 27.2559 15.5356C27.2559 20.3025 31.1202 24.1669 35.8871 24.1669C40.6541 24.1669 44.5184 20.3025 44.5184 15.5356Z" fill="#7B7E7D"/>
<path d="M80.1952 15.5356C80.1952 10.7687 76.3308 6.9043 71.5639 6.9043C66.797 6.9043 62.9326 10.7687 62.9326 15.5356C62.9326 20.3025 66.797 24.1669 71.5639 24.1669C76.3308 24.1669 80.1952 20.3025 80.1952 15.5356Z" fill="#7B7E7D"/>
<path d="M115.871 15.5356C115.871 10.7687 112.007 6.9043 107.24 6.9043C102.473 6.9043 98.6084 10.7687 98.6084 15.5356C98.6084 20.3025 102.473 24.1669 107.24 24.1669C112.007 24.1669 115.871 20.3025 115.871 15.5356Z" fill="#7B7E7D"/>
<path d="M151.547 15.5356C151.547 10.7687 147.682 6.9043 142.915 6.9043C138.149 6.9043 134.284 10.7687 134.284 15.5356C134.284 20.3025 138.149 24.1669 142.915 24.1669C147.682 24.1669 151.547 20.3025 151.547 15.5356Z" fill="#7B7E7D"/>
<path d="M8.84362 51.2114C8.84362 46.4444 4.97927 42.5801 0.212339 42.5801C-4.55459 42.5801 -8.41895 46.4444 -8.41895 51.2114C-8.41895 55.9783 -4.55459 59.8426 0.212339 59.8426C4.97927 59.8426 8.84362 55.9783 8.84362 51.2114Z" fill="#7B7E7D"/>
<path d="M44.5184 51.2123C44.5184 46.4454 40.6541 42.5811 35.8871 42.5811C31.1202 42.5811 27.2559 46.4454 27.2559 51.2123C27.2559 55.9793 31.1202 59.8436 35.8871 59.8436C40.6541 59.8436 44.5184 55.9793 44.5184 51.2123Z" fill="#7B7E7D"/>
<path d="M80.1952 51.2114C80.1952 46.4444 76.3308 42.5801 71.5639 42.5801C66.797 42.5801 62.9326 46.4444 62.9326 51.2114C62.9326 55.9783 66.797 59.8426 71.5639 59.8426C76.3308 59.8426 80.1952 55.9783 80.1952 51.2114Z" fill="#7B7E7D"/>
<path d="M115.871 51.2123C115.871 46.4454 112.007 42.5811 107.24 42.5811C102.473 42.5811 98.6084 46.4454 98.6084 51.2123C98.6084 55.9793 102.473 59.8436 107.24 59.8436C112.007 59.8436 115.871 55.9793 115.871 51.2123Z" fill="#7B7E7D"/>
<path d="M151.547 51.2114C151.547 46.4444 147.682 42.5801 142.915 42.5801C138.149 42.5801 134.284 46.4444 134.284 51.2114C134.284 55.9783 138.149 59.8426 142.915 59.8426C147.682 59.8426 151.547 55.9783 151.547 51.2114Z" fill="#7B7E7D"/>
<path d="M8.84362 86.8881C8.84362 82.1212 4.97927 78.2568 0.212339 78.2568C-4.55459 78.2568 -8.41895 82.1212 -8.41895 86.8881C-8.41895 91.655 -4.55459 95.5194 0.212339 95.5194C4.97927 95.5194 8.84362 91.655 8.84362 86.8881Z" fill="#7B7E7D"/>
<path d="M44.5184 86.8881C44.5184 82.1212 40.6541 78.2568 35.8871 78.2568C31.1202 78.2568 27.2559 82.1212 27.2559 86.8881C27.2559 91.655 31.1202 95.5194 35.8871 95.5194C40.6541 95.5194 44.5184 91.655 44.5184 86.8881Z" fill="#7B7E7D"/>
<path d="M80.1952 86.8881C80.1952 82.1212 76.3308 78.2568 71.5639 78.2568C66.797 78.2568 62.9326 82.1212 62.9326 86.8881C62.9326 91.655 66.797 95.5194 71.5639 95.5194C76.3308 95.5194 80.1952 91.655 80.1952 86.8881Z" fill="#7B7E7D"/>
<path d="M115.871 86.8881C115.871 82.1212 112.007 78.2568 107.24 78.2568C102.473 78.2568 98.6084 82.1212 98.6084 86.8881C98.6084 91.655 102.473 95.5194 107.24 95.5194C112.007 95.5194 115.871 91.655 115.871 86.8881Z" fill="#7B7E7D"/>
<path d="M151.547 86.8881C151.547 82.1212 147.682 78.2568 142.915 78.2568C138.149 78.2568 134.284 82.1212 134.284 86.8881C134.284 91.655 138.149 95.5194 142.915 95.5194C147.682 95.5194 151.547 91.655 151.547 86.8881Z" fill="#7B7E7D"/>
<path d="M8.84362 122.564C8.84362 117.797 4.97927 113.933 0.212339 113.933C-4.55459 113.933 -8.41895 117.797 -8.41895 122.564C-8.41895 127.331 -4.55459 131.195 0.212339 131.195C4.97927 131.195 8.84362 127.331 8.84362 122.564Z" fill="#7B7E7D"/>
<path d="M44.5184 122.564C44.5184 117.797 40.6541 113.933 35.8871 113.933C31.1202 113.933 27.2559 117.797 27.2559 122.564C27.2559 127.331 31.1202 131.195 35.8871 131.195C40.6541 131.195 44.5184 127.331 44.5184 122.564Z" fill="#7B7E7D"/>
<path d="M80.1952 122.564C80.1952 117.797 76.3308 113.933 71.5639 113.933C66.797 113.933 62.9326 117.797 62.9326 122.564C62.9326 127.331 66.797 131.195 71.5639 131.195C76.3308 131.195 80.1952 127.331 80.1952 122.564Z" fill="#7B7E7D"/>
<path d="M115.871 122.564C115.871 117.797 112.007 113.933 107.24 113.933C102.473 113.933 98.6084 117.797 98.6084 122.564C98.6084 127.331 102.473 131.195 107.24 131.195C112.007 131.195 115.871 127.331 115.871 122.564Z" fill="#7B7E7D"/>
<path d="M151.547 122.564C151.547 117.797 147.682 113.933 142.915 113.933C138.149 113.933 134.284 117.797 134.284 122.564C134.284 127.331 138.149 131.195 142.915 131.195C147.682 131.195 151.547 127.331 151.547 122.564Z" fill="#7B7E7D"/>
<path d="M8.84362 158.24C8.84362 153.473 4.97927 149.608 0.212339 149.608C-4.55459 149.608 -8.41895 153.473 -8.41895 158.24C-8.41895 163.007 -4.55459 166.871 0.212339 166.871C4.97927 166.871 8.84362 163.007 8.84362 158.24Z" fill="#7B7E7D"/>
<path d="M44.5184 158.24C44.5184 153.473 40.6541 149.608 35.8871 149.608C31.1202 149.608 27.2559 153.473 27.2559 158.24C27.2559 163.007 31.1202 166.871 35.8871 166.871C40.6541 166.871 44.5184 163.007 44.5184 158.24Z" fill="#7B7E7D"/>
<path d="M80.1952 158.24C80.1952 153.473 76.3308 149.608 71.5639 149.608C66.797 149.608 62.9326 153.473 62.9326 158.24C62.9326 163.007 66.797 166.871 71.5639 166.871C76.3308 166.871 80.1952 163.007 80.1952 158.24Z" fill="#7B7E7D"/>
<path d="M115.871 158.24C115.871 153.473 112.007 149.608 107.24 149.608C102.473 149.608 98.6084 153.473 98.6084 158.24C98.6084 163.007 102.473 166.871 107.24 166.871C112.007 166.871 115.871 163.007 115.871 158.24Z" fill="#7B7E7D"/>
<path d="M151.547 158.24C151.547 153.473 147.682 149.608 142.915 149.608C138.149 149.608 134.284 153.473 134.284 158.24C134.284 163.007 138.149 166.871 142.915 166.871C147.682 166.871 151.547 163.007 151.547 158.24Z" fill="#7B7E7D"/>
</g>
</g>
<defs>
<clipPath id="clip0_314_4540">
<rect width="206" height="170.054" fill="white" transform="translate(-51)"/>
</clipPath>
</defs>
</svg>
