<svg width="42" height="52" viewBox="0 0 42 52" fill="none" xmlns="http://www.w3.org/2000/svg">
<path d="M20.9963 52C21.9625 52 22.8689 51.6136 23.5506 50.9089C29.0936 45.1278 42 30.656 42 21.2379C42 9.52412 32.5768 0 21.0037 0C9.43071 0 0 9.52412 0 21.2304C0 30.6484 12.8989 45.1202 18.4494 50.9014C19.1236 51.6136 20.03 52 20.9963 52ZM10.3895 21.2304C10.3895 15.3128 15.1461 10.5015 20.9963 10.5015C26.8464 10.5015 31.603 15.3128 31.603 21.2304C31.603 27.1479 26.8464 31.9668 20.9963 31.9668C15.1461 31.9668 10.3895 27.1479 10.3895 21.2304Z" fill="#09C48C"/>
</svg>
