<svg width="52" height="52" viewBox="0 0 52 52" fill="none" xmlns="http://www.w3.org/2000/svg">
<path d="M41.8236 33.5437C44.8901 35.3753 47.7286 37.2105 50.2487 39.0548C51.8705 40.2417 52.4784 42.4174 51.5923 44.2212C49.7857 47.8988 46.6579 50.5572 41.8949 51.6078C38.023 52.4617 33.9831 51.8794 30.3602 50.2684C24.4475 47.6393 18.6505 43.6956 13.4775 38.5225C8.3044 33.3495 4.36073 27.5525 1.73158 21.6398C0.120627 18.0169 -0.461711 13.977 0.392244 10.1051C1.44276 5.34209 4.10116 2.21428 7.77881 0.407657C9.58259 -0.478431 11.7583 0.129517 12.9452 1.75129C14.7895 4.27145 16.6247 7.10991 18.4563 10.1764C19.416 11.7832 19.202 13.8554 17.8973 15.1972C16.7456 16.3817 15.5389 17.5122 14.2787 18.5884C12.7625 19.8832 12.5363 22.1298 13.6794 23.7634C15.6009 26.5093 17.8217 29.165 20.3283 31.6717C22.835 34.1783 25.4907 36.3991 28.2366 38.3206C29.8702 39.4637 32.1168 39.2375 33.4116 37.7213C34.4878 36.4611 35.6183 35.2544 36.8028 34.1027C38.1446 32.798 40.2168 32.584 41.8236 33.5437Z" fill="#09C48C"/>
</svg>
