<svg width="168" height="246" viewBox="0 0 168 246" fill="none" xmlns="http://www.w3.org/2000/svg">
<g clip-path="url(#clip0_314_4617)">
<mask id="mask0_314_4617" style="mask-type:luminance" maskUnits="userSpaceOnUse" x="0" y="0" width="298" height="300">
<path d="M298 0H0V299.665H298V0Z" fill="white"/>
</mask>
<g mask="url(#mask0_314_4617)">
<path d="M34.9613 22.4743C34.9613 15.5785 29.3711 9.98828 22.4753 9.98828C15.5794 9.98828 9.98926 15.5785 9.98926 22.4743C9.98926 29.3702 15.5794 34.9603 22.4753 34.9603C29.3711 34.9603 34.9613 29.3702 34.9613 22.4743Z" fill="#EAF0EF"/>
<path d="M86.5707 22.4743C86.5707 15.5785 80.9805 9.98828 74.0847 9.98828C67.1888 9.98828 61.5986 15.5785 61.5986 22.4743C61.5986 29.3702 67.1888 34.9603 74.0847 34.9603C80.9805 34.9603 86.5707 29.3702 86.5707 22.4743Z" fill="#EAF0EF"/>
<path d="M138.177 22.4743C138.177 15.5785 132.587 9.98828 125.691 9.98828C118.795 9.98828 113.205 15.5785 113.205 22.4743C113.205 29.3702 118.795 34.9603 125.691 34.9603C132.587 34.9603 138.177 29.3702 138.177 22.4743Z" fill="#EAF0EF"/>
<path d="M189.787 22.4743C189.787 15.5785 184.197 9.98828 177.301 9.98828C170.406 9.98828 164.815 15.5785 164.815 22.4743C164.815 29.3702 170.406 34.9603 177.301 34.9603C184.197 34.9603 189.787 29.3702 189.787 22.4743Z" fill="#EAF0EF"/>
<path d="M34.9613 74.0837C34.9613 67.1878 29.3711 61.5977 22.4753 61.5977C15.5794 61.5977 9.98926 67.1878 9.98926 74.0837C9.98926 80.9795 15.5794 86.5697 22.4753 86.5697C29.3711 86.5697 34.9613 80.9795 34.9613 74.0837Z" fill="#EAF0EF"/>
<path d="M86.5707 74.0837C86.5707 67.1878 80.9805 61.5977 74.0847 61.5977C67.1888 61.5977 61.5986 67.1878 61.5986 74.0837C61.5986 80.9795 67.1888 86.5697 74.0847 86.5697C80.9805 86.5697 86.5707 80.9795 86.5707 74.0837Z" fill="#EAF0EF"/>
<path d="M138.177 74.0837C138.177 67.1878 132.587 61.5977 125.691 61.5977C118.795 61.5977 113.205 67.1878 113.205 74.0837C113.205 80.9795 118.795 86.5697 125.691 86.5697C132.587 86.5697 138.177 80.9795 138.177 74.0837Z" fill="#EAF0EF"/>
<path d="M189.787 74.0837C189.787 67.1878 184.197 61.5977 177.301 61.5977C170.406 61.5977 164.815 67.1878 164.815 74.0837C164.815 80.9795 170.406 86.5697 177.301 86.5697C184.197 86.5697 189.787 80.9795 189.787 74.0837Z" fill="#EAF0EF"/>
<path d="M34.9613 125.692C34.9613 118.796 29.3711 113.206 22.4753 113.206C15.5794 113.206 9.98926 118.796 9.98926 125.692C9.98926 132.588 15.5794 138.178 22.4753 138.178C29.3711 138.178 34.9613 132.588 34.9613 125.692Z" fill="#EAF0EF"/>
<path d="M86.5707 125.693C86.5707 118.797 80.9805 113.207 74.0847 113.207C67.1888 113.207 61.5986 118.797 61.5986 125.693C61.5986 132.589 67.1888 138.179 74.0847 138.179C80.9805 138.179 86.5707 132.589 86.5707 125.693Z" fill="#EAF0EF"/>
<path d="M138.177 125.693C138.177 118.797 132.587 113.207 125.691 113.207C118.795 113.207 113.205 118.797 113.205 125.693C113.205 132.589 118.795 138.179 125.691 138.179C132.587 138.179 138.177 132.589 138.177 125.693Z" fill="#EAF0EF"/>
<path d="M189.787 125.692C189.787 118.796 184.197 113.206 177.301 113.206C170.406 113.206 164.815 118.796 164.815 125.692C164.815 132.588 170.406 138.178 177.301 138.178C184.197 138.178 189.787 132.588 189.787 125.692Z" fill="#EAF0EF"/>
<path d="M34.9613 177.301C34.9613 170.406 29.3711 164.815 22.4753 164.815C15.5794 164.815 9.98926 170.406 9.98926 177.301C9.98926 184.197 15.5794 189.787 22.4753 189.787C29.3711 189.787 34.9613 184.197 34.9613 177.301Z" fill="#EAF0EF"/>
<path d="M86.5707 177.301C86.5707 170.406 80.9805 164.815 74.0847 164.815C67.1888 164.815 61.5986 170.406 61.5986 177.301C61.5986 184.197 67.1888 189.787 74.0847 189.787C80.9805 189.787 86.5707 184.197 86.5707 177.301Z" fill="#EAF0EF"/>
<path d="M138.177 177.301C138.177 170.406 132.587 164.815 125.691 164.815C118.795 164.815 113.205 170.406 113.205 177.301C113.205 184.197 118.795 189.787 125.691 189.787C132.587 189.787 138.177 184.197 138.177 177.301Z" fill="#EAF0EF"/>
<path d="M189.787 177.301C189.787 170.406 184.197 164.815 177.301 164.815C170.406 164.815 164.815 170.406 164.815 177.301C164.815 184.197 170.406 189.787 177.301 189.787C184.197 189.787 189.787 184.197 189.787 177.301Z" fill="#EAF0EF"/>
<path d="M34.9613 228.911C34.9613 222.015 29.3711 216.425 22.4753 216.425C15.5794 216.425 9.98926 222.015 9.98926 228.911C9.98926 235.807 15.5794 241.397 22.4753 241.397C29.3711 241.397 34.9613 235.807 34.9613 228.911Z" fill="#EAF0EF"/>
<path d="M86.5707 228.91C86.5707 222.014 80.9805 216.424 74.0847 216.424C67.1888 216.424 61.5986 222.014 61.5986 228.91C61.5986 235.806 67.1888 241.396 74.0847 241.396C80.9805 241.396 86.5707 235.806 86.5707 228.91Z" fill="#EAF0EF"/>
<path d="M138.177 228.91C138.177 222.014 132.587 216.424 125.691 216.424C118.795 216.424 113.205 222.014 113.205 228.91C113.205 235.806 118.795 241.396 125.691 241.396C132.587 241.396 138.177 235.806 138.177 228.91Z" fill="#EAF0EF"/>
<path d="M189.787 228.911C189.787 222.015 184.197 216.425 177.301 216.425C170.406 216.425 164.815 222.015 164.815 228.911C164.815 235.807 170.406 241.397 177.301 241.397C184.197 241.397 189.787 235.807 189.787 228.911Z" fill="#EAF0EF"/>
</g>
</g>
<defs>
<clipPath id="clip0_314_4617">
<rect width="298" height="246" fill="white"/>
</clipPath>
</defs>
</svg>
