<svg width="30" height="30" viewBox="0 0 30 30" fill="none" xmlns="http://www.w3.org/2000/svg">
<path d="M0.863545 15.7816C0.761268 15.5733 0.734286 15.3359 0.787183 15.1098C0.84008 14.8838 0.969594 14.6831 1.15372 14.5417C1.33785 14.4003 1.56524 14.3271 1.79727 14.3343C2.02929 14.3416 2.25164 14.429 2.42655 14.5816C2.42655 14.5816 5.52254 17.6236 7.19954 19.0306C8.18954 19.8646 8.63654 20.3296 9.77054 19.4476C16.2505 14.4136 27.7705 5.30265 27.9595 5.14965C28.7995 4.49865 29.8855 5.39865 28.7995 6.42765C26.9995 8.12265 12.4615 22.8556 9.79754 24.6766C8.89754 25.2766 6.88154 25.3966 5.77154 23.2396C5.42954 22.5916 0.863545 15.7816 0.863545 15.7816Z" fill="#09C48C"/>
</svg>
