<svg width="64" height="64" viewBox="0 0 64 64" fill="none" xmlns="http://www.w3.org/2000/svg">
<g clip-path="url(#clip0_740_479)">
<mask id="mask0_740_479" style="mask-type:luminance" maskUnits="userSpaceOnUse" x="0" y="0" width="64" height="64">
<path d="M64 0H0V63.961H64V0Z" fill="white"/>
</mask>
<g mask="url(#mask0_740_479)">
<path d="M64.0054 8.381C63.8994 8.802 63.8054 9.228 63.6834 9.644C63.2446 11.0654 62.405 12.3299 61.2654 13.286C46.6307 26.1553 32 39.0267 17.3734 51.9C16.8889 52.3225 16.3602 52.6913 15.7964 53C12.5504 54.787 9.28936 56.547 6.03336 58.316C5.83336 58.424 5.63336 58.526 5.31836 58.693C5.45136 58.412 5.52636 58.233 5.61836 58.064C7.55169 54.5407 9.48502 51.0187 11.4184 47.498C11.5994 47.171 11.8153 46.8645 12.0624 46.584C24.9004 32.0113 37.739 17.4373 50.5784 2.862C51.8076 1.36711 53.546 0.379174 55.4594 0.088C55.5173 0.0680524 55.5715 0.0382856 55.6194 0L57.4954 0C57.5835 0.0470522 57.6763 0.0845969 57.7724 0.112C58.7481 0.275361 59.6814 0.631952 60.5175 1.16085C61.3537 1.68975 62.0757 2.3803 62.6414 3.192C63.3318 4.22984 63.7965 5.40113 64.0054 6.63V8.381Z" fill="#09C48C"/>
<path d="M50.943 27.4209L51.898 33.1059L56.084 28.8489L58.892 31.6279C58.84 31.6829 58.692 31.8459 58.533 32.0029C56.706 33.8309 54.874 35.6539 53.06 37.4949C52.8739 37.6729 52.766 37.9175 52.76 38.1749C52.949 39.5309 53.193 40.8749 53.421 42.2449L58.848 36.8169L61.583 39.5739C60.505 40.6489 59.369 41.7799 58.235 42.9129C57.04 44.1059 55.86 45.3129 54.646 46.4869C54.4897 46.6185 54.374 46.7917 54.3122 46.9864C54.2504 47.1811 54.2451 47.3893 54.297 47.5869C54.766 50.2729 55.206 52.9649 55.632 55.6589C55.6452 55.7738 55.635 55.8902 55.602 56.0011C55.569 56.1119 55.5139 56.2149 55.44 56.3039C52.9473 58.8219 50.444 61.3296 47.93 63.8269C47.8691 63.8772 47.805 63.9233 47.738 63.9649C47.655 63.8278 47.5796 63.6862 47.512 63.5409C44.3033 55.5249 41.0936 47.5089 37.883 39.4929C37.8037 39.3642 37.7772 39.2098 37.8091 39.062C37.8409 38.9142 37.9287 38.7845 38.054 38.6999C42.1793 35.0906 46.2973 31.4726 50.408 27.8459C50.559 27.7129 50.724 27.5959 50.941 27.4249" fill="#09C48C"/>
<path d="M0 16.2862C0.174 16.0922 0.29 15.9512 0.417 15.8232C2.80567 13.4339 5.19167 11.0442 7.575 8.65422C7.67707 8.52823 7.81239 8.43334 7.96563 8.38032C8.11886 8.32729 8.28389 8.31825 8.442 8.35422C11.108 8.81922 13.782 9.24022 16.448 9.70622C16.6355 9.75342 16.8325 9.74736 17.0168 9.6887C17.201 9.63005 17.3653 9.52114 17.491 9.37422C19.805 7.03322 22.138 4.70922 24.417 2.42822L27.094 5.10922L21.637 10.5622C23.137 10.8102 24.527 11.0562 25.921 11.2492C26.108 11.2752 26.371 11.0812 26.532 10.9212C28.499 8.96822 30.454 7.00322 32.364 5.09022L34.964 7.73022L30.743 11.8992L30.824 12.0862L36.551 13.0532C36.398 13.2532 36.293 13.3952 36.175 13.5302C32.567 17.6296 28.9613 21.7296 25.358 25.8302C25.2553 25.9898 25.0941 26.1029 24.9091 26.1451C24.724 26.1873 24.5298 26.1554 24.368 26.0562C16.4927 22.8916 8.61167 19.7366 0.725 16.5912C0.513 16.5092 0.3 16.4142 0 16.2862Z" fill="#09C48C"/>
<path d="M17.1162 56.6361C20.2702 54.8251 22.5942 52.0981 25.3272 49.8691C25.6422 49.6121 25.9392 49.3351 26.3492 48.9751V49.7171C26.3492 52.5491 26.3382 55.3801 26.3602 58.2121C26.3706 58.4156 26.3349 58.6189 26.2555 58.8066C26.1762 58.9944 26.0554 59.1617 25.9022 59.2961C24.4292 60.7071 22.9782 62.1401 21.4752 63.6071L17.1162 56.6361Z" fill="#09C48C"/>
<path d="M7.41509 46.9202L0.246094 42.4372C0.588094 42.1322 0.900094 41.8742 1.18709 41.5922C2.40409 40.3922 3.61109 39.1852 4.83209 37.9922C4.97639 37.8239 5.17341 37.7093 5.39109 37.6672C8.53209 37.6472 11.6741 37.6532 14.8821 37.6532C12.4821 40.8532 9.29309 43.3282 7.41409 46.9202" fill="#09C48C"/>
</g>
</g>
<defs>
<clipPath id="clip0_740_479">
<rect width="64" height="63.961" fill="white"/>
</clipPath>
</defs>
</svg>
