<svg width="303" height="197" viewBox="0 0 303 197" fill="none" xmlns="http://www.w3.org/2000/svg">
<g clip-path="url(#clip0_697_4179)">
<g opacity="0.4">
<path d="M73.5903 114.21L57.8169 114.21L45.1653 126.862L45.1653 142.752C45.1572 143.193 44.9767 143.612 44.6626 143.921L36.8635 151.72C36.5532 152.032 36.1343 152.213 35.6943 152.223L10.2626 152.223C9.82261 152.213 9.40371 152.032 9.09334 151.72L-5.40565 137.327C-5.7157 137.015 -5.89546 136.597 -5.90843 136.157L-6.1306 106.844C-7.38752 106.438 -8.45839 105.597 -9.15026 104.472C-9.84214 103.348 -10.1095 102.012 -9.90433 100.708C-9.69913 99.4032 -9.03481 98.2147 -8.03102 97.3565C-7.02723 96.4982 -5.74997 96.0266 -4.42929 96.0266C-3.10861 96.0266 -1.83134 96.4982 -0.82756 97.3565C0.176231 98.2147 0.840553 99.4032 1.04575 100.708C1.25094 102.012 0.98349 103.348 0.291619 104.472C-0.400261 105.597 -1.47113 106.438 -2.72805 106.844L-2.50589 135.444L10.9641 148.844L34.9576 148.844L41.7628 142.05L41.7628 126.16C41.7691 125.721 41.9451 125.302 42.2539 124.991L55.9109 111.369C56.0632 111.212 56.2448 111.087 56.4455 111.001C56.6461 110.915 56.8618 110.869 57.0802 110.866L74.2918 110.866C74.5102 110.869 74.7259 110.915 74.9266 111.001C75.1272 111.087 75.3089 111.212 75.4611 111.369L85.2596 121.156C85.5644 121.47 85.7398 121.887 85.7508 122.325L85.7508 130.907C87.0077 131.313 88.0785 132.154 88.7704 133.279C89.4622 134.404 89.7297 135.739 89.5245 137.043C89.3193 138.348 88.655 139.536 87.6512 140.395C86.6474 141.253 85.3701 141.724 84.0495 141.724C82.7288 141.724 81.4515 141.253 80.4477 140.395C79.4439 139.536 78.7796 138.348 78.5744 137.043C78.3692 135.739 78.6367 134.404 79.3285 133.279C80.0204 132.154 81.0912 131.313 82.3481 130.907L82.3481 123.062L73.5903 114.21Z" fill="#09C48C"/>
<path d="M135.188 88.0886L116.807 106.47C116.655 106.626 116.473 106.751 116.273 106.837C116.072 106.924 115.856 106.97 115.638 106.972L46.7446 106.972L29.0068 124.71L29.0068 128.709C30.2628 129.116 31.3324 129.957 32.023 131.082C32.7137 132.207 32.9801 133.542 32.7742 134.846C32.5684 136.15 31.9039 137.338 30.9002 138.195C29.8966 139.053 28.6198 139.524 27.2996 139.524C25.9795 139.524 24.7027 139.053 23.6991 138.195C22.6955 137.338 22.0309 136.15 21.8251 134.846C21.6193 133.542 21.8856 132.207 22.5763 131.082C23.267 129.957 24.3366 129.116 25.5925 128.709L25.5925 124.032C25.5953 123.814 25.6411 123.598 25.7274 123.397C25.8137 123.197 25.9387 123.015 26.0953 122.863L44.8037 104.154C45.1152 103.846 45.5343 103.67 45.9729 103.663L114.901 103.663L133.282 85.1772C133.594 84.8684 134.013 84.6923 134.452 84.686L244.235 84.686C244.673 84.6923 245.092 84.8684 245.404 85.1771L253.788 93.5725C254.319 93.395 254.875 93.3004 255.436 93.2919C256.532 93.2919 257.604 93.6169 258.515 94.2259C259.427 94.8349 260.137 95.7005 260.557 96.7133C260.976 97.726 261.086 98.8404 260.872 99.9155C260.658 100.991 260.13 101.978 259.355 102.753C258.58 103.528 257.593 104.056 256.517 104.27C255.442 104.484 254.328 104.374 253.315 103.955C252.302 103.535 251.437 102.825 250.828 101.913C250.219 101.002 249.894 99.9304 249.894 98.8342C249.894 97.6578 250.275 96.5131 250.981 95.5719L243.498 88.0886L135.188 88.0886Z" fill="#09C48C"/>
<path d="M119.436 79.05L109.439 89.0473C109.847 89.8186 110.064 90.6768 110.07 91.5495C110.073 92.6462 109.75 93.7189 109.142 94.6319C108.534 95.5448 107.67 96.257 106.657 96.6783C105.645 97.0996 104.53 97.211 103.454 96.9985C102.378 96.786 101.39 96.259 100.613 95.4844C99.8369 94.7097 99.3079 93.7222 99.0931 92.6468C98.8783 91.5713 98.9874 90.4563 99.4065 89.4429C99.8257 88.4295 100.536 87.5633 101.448 86.9537C102.359 86.3442 103.431 86.0189 104.528 86.0189C105.4 86.0228 106.258 86.2353 107.03 86.6386L117.554 76.1151C117.868 75.8104 118.285 75.635 118.723 75.624L267.326 75.624C267.764 75.6303 268.183 75.8063 268.495 76.1151L286.28 93.8997C287.051 93.4915 287.909 93.2749 288.782 93.2683C289.878 93.2683 290.95 93.5934 291.861 94.2024C292.772 94.8114 293.483 95.677 293.902 96.6897C294.322 97.7024 294.432 98.8168 294.218 99.8919C294.004 100.967 293.476 101.955 292.701 102.73C291.926 103.505 290.938 104.033 289.863 104.247C288.788 104.46 287.674 104.351 286.661 103.931C285.648 103.512 284.783 102.801 284.174 101.89C283.565 100.978 283.24 99.9069 283.24 98.8107C283.242 97.9389 283.455 97.0806 283.859 96.3084L266.589 79.0266L119.436 79.05Z" fill="#09C48C"/>
<path d="M22.1883 49.8534C22.6272 49.8687 23.0445 50.0481 23.3575 50.3562L39.4935 66.5038C40.247 66.0541 41.0991 65.7955 41.9755 65.7506C42.8519 65.7058 43.7259 65.8761 44.5214 66.2466L96.8814 13.8866C97.1929 13.5778 97.612 13.4018 98.0506 13.3955L256.803 13.3955C257.24 13.4065 257.658 13.5818 257.972 13.8866L263.654 19.581C264.785 18.9299 266.111 18.7032 267.394 18.9418C268.676 19.1803 269.832 19.8684 270.653 20.8824C271.474 21.8964 271.907 23.17 271.873 24.4743C271.84 25.7786 271.342 27.0282 270.47 27.9986C269.598 28.9691 268.408 29.5968 267.115 29.7691C265.822 29.9414 264.509 29.6469 263.414 28.9385C262.318 28.2301 261.511 27.1543 261.137 25.9043C260.763 24.6542 260.847 23.3119 261.374 22.1183L256.054 16.7981L98.7872 16.7981L47.0353 68.5501C47.5235 69.3794 47.7818 70.3238 47.7836 71.2861C47.7182 72.7105 47.1062 74.0548 46.0751 75.0396C45.044 76.0245 43.673 76.574 42.2472 76.574C40.8213 76.574 39.4503 76.0245 38.4192 75.0396C37.3881 74.0548 36.7762 72.7105 36.7107 71.2861C36.7096 70.5035 36.877 69.7298 37.2018 69.0178L21.4867 53.2677L-74.3935 53.2677C-74.8325 53.2524 -75.2497 53.073 -75.5628 52.7649L-85.677 42.6507C-86.2231 42.8375 -86.7953 42.9362 -87.3724 42.943C-88.6252 42.9544 -89.8454 42.5437 -90.8363 41.777C-91.8272 41.0103 -92.5311 39.9323 -92.8346 38.7167C-93.138 37.5012 -93.0233 36.2188 -92.5091 35.0764C-91.9948 33.9339 -91.1108 32.9979 -89.9996 32.4191C-88.8884 31.8404 -87.6147 31.6526 -86.3838 31.8861C-85.1529 32.1196 -84.0364 32.7607 -83.2144 33.7062C-82.3923 34.6516 -81.9124 35.8464 -81.8522 37.0978C-81.792 38.3492 -82.1549 39.5845 -82.8824 40.6045L-73.6451 49.83L22.1883 49.8534Z" fill="#09C48C"/>
<path d="M297.435 11.1388C296.269 11.1351 295.134 10.7619 294.193 10.0729C293.252 9.38382 292.553 8.41434 292.197 7.30355L-2.1669 7.30356C-2.52338 8.41625 -3.22378 9.38712 -4.16724 10.0763C-5.11072 10.7655 -6.24853 11.1375 -7.41693 11.1388C-8.5574 11.1409 -9.66983 10.7851 -10.5974 10.1215L-21.8458 21.3699C-21.1305 22.382 -20.7758 23.6049 -20.8387 24.8427C-20.9016 26.0804 -21.3784 27.2612 -22.1926 28.1955C-23.0068 29.1299 -24.1112 29.7636 -25.3287 29.9952C-26.5462 30.2268 -27.8062 30.0428 -28.9066 29.4726C-30.007 28.9025 -30.884 27.9793 -31.397 26.8511C-31.9099 25.7229 -32.029 24.4551 -31.7353 23.2511C-31.4415 22.0471 -30.7519 20.9766 -29.777 20.2114C-28.8021 19.4462 -27.5984 19.0307 -26.3591 19.0314C-25.7662 19.0421 -25.1785 19.1447 -24.6169 19.3354L-12.6436 7.30356C-12.8343 6.74201 -12.9369 6.15431 -12.9476 5.56136C-12.9578 4.24 -12.4934 2.95885 -11.6391 1.95078C-10.7848 0.942707 -9.59717 0.274616 -8.29202 0.067946C-6.98688 -0.138724 -5.65091 0.129739 -4.52695 0.824539C-3.40295 1.51934 -2.56552 2.59435 -2.1669 3.8542L292.209 3.85418C292.524 2.88304 293.102 2.01812 293.878 1.35517C294.655 0.69223 295.6 0.25717 296.608 0.0981922C297.617 -0.0607853 298.65 0.062522 299.592 0.454454C300.535 0.846387 301.351 1.49162 301.95 2.31873C302.548 3.14584 302.906 4.12252 302.984 5.14057C303.062 6.15861 302.856 7.17829 302.39 8.08665C301.924 8.99502 301.215 9.75658 300.343 10.287C299.47 10.8175 298.468 11.0961 297.447 11.092L297.435 11.1388Z" fill="#09C48C"/>
<path d="M74.2214 13.1499C75.0664 13.1365 75.9033 13.3165 76.668 13.6762C77.4328 14.0359 78.1051 14.5656 78.6337 15.225C79.1622 15.8844 79.533 16.656 79.7177 17.4806C79.9023 18.3053 79.8959 19.1613 79.699 19.9831C79.502 20.8049 79.1197 21.5709 78.5814 22.2223C78.043 22.8737 77.3628 23.3934 76.5928 23.7416C75.8228 24.0898 74.9833 24.2573 74.1386 24.2313C73.294 24.2052 72.4664 23.9864 71.7192 23.5914L47.1646 48.1461C47.775 49.3311 47.9419 50.6952 47.6351 51.9923C47.3283 53.2895 46.568 54.4343 45.4914 55.2202C44.4148 56.0061 43.0928 56.3814 41.7638 56.2783C40.4349 56.1752 39.1865 55.6006 38.2439 54.658C37.3014 53.7155 36.7268 52.4671 36.6237 51.1382C36.5206 49.8092 36.8959 48.4872 37.6818 47.4106C38.4677 46.334 39.6125 45.5737 40.9096 45.2669C42.2068 44.9601 43.5709 45.127 44.7559 45.7375L69.3106 21.1828C68.9059 20.4106 68.6933 19.5523 68.6908 18.6805C68.6908 17.2137 69.2735 15.8069 70.3107 14.7697C71.3479 13.7325 72.7546 13.1499 74.2214 13.1499Z" fill="#09C48C"/>
<path d="M104.506 42.9429C103.082 42.8774 101.737 42.2655 100.753 41.2344C99.7677 40.2033 99.2182 38.8323 99.2182 37.4064C99.2182 35.9805 99.7677 34.6095 100.753 33.5784C101.737 32.5473 103.082 31.9354 104.506 31.8699C105.378 31.8725 106.236 32.085 107.008 32.4896L112.387 27.111C112.701 26.8062 113.119 26.6308 113.556 26.6199L224.169 26.6199C224.575 25.3629 225.416 24.2921 226.54 23.6002C227.665 22.9083 229 22.6409 230.305 22.8461C231.61 23.0513 232.798 23.7156 233.656 24.7194C234.515 25.7232 234.986 27.0005 234.986 28.3212C234.986 29.6418 234.515 30.9191 233.656 31.9229C232.798 32.9267 231.61 33.591 230.305 33.7962C229 34.0014 227.665 33.734 226.54 33.0421C225.416 32.3502 224.575 31.2794 224.169 30.0224L114.258 30.0224L109.37 34.8983C109.814 35.7387 110.032 36.6799 110.002 37.6298C109.973 38.5797 109.697 39.5056 109.202 40.3167C108.706 41.1279 108.009 41.7964 107.178 42.2568C106.346 42.7172 105.41 42.9536 104.459 42.9429L104.506 42.9429Z" fill="#09C48C"/>
<path d="M288.818 43.7849C290.242 43.8504 291.586 44.4623 292.571 45.4934C293.556 46.5245 294.105 47.8955 294.105 49.3214C294.105 50.7473 293.556 52.1183 292.571 53.1494C291.586 54.1805 290.242 54.7924 288.818 54.8579C287.663 54.8606 286.537 54.4962 285.602 53.8172L268.531 70.8769C268.379 71.0335 268.197 71.1585 267.996 71.2448C267.796 71.3311 267.58 71.3769 267.361 71.3797L104.891 71.3797L76.7703 99.5007C76.4587 99.8095 76.0396 99.9855 75.601 99.9918L38.6286 99.9918L15.4887 123.132C16.0314 124.205 16.2087 125.426 15.9938 126.609C15.7789 127.792 15.1834 128.872 14.2981 129.686C13.4127 130.499 12.2859 131.002 11.0889 131.116C9.89194 131.231 8.69037 130.951 7.6669 130.32C6.64341 129.689 5.85401 128.74 5.41883 127.62C4.98368 126.499 4.92649 125.266 5.25598 124.11C5.58548 122.953 6.28363 121.936 7.24427 121.213C8.20487 120.49 9.37537 120.1 10.5778 120.103C11.4496 120.106 12.3079 120.318 13.0801 120.723L36.6877 97.092C36.8399 96.9354 37.0215 96.8104 37.2222 96.7241C37.4228 96.6378 37.6385 96.592 37.8569 96.5892L74.8644 96.5892L102.927 68.4682C103.24 68.1601 103.657 67.9807 104.096 67.9654L266.625 67.9654L283.568 51.0227C283.381 50.4767 283.282 49.9043 283.275 49.3272C283.275 47.8573 283.859 46.4476 284.899 45.4082C285.938 44.3688 287.348 43.7849 288.818 43.7849Z" fill="#09C48C"/>
<path d="M274.751 40.6045C276.176 40.67 277.52 41.2818 278.505 42.313C279.49 43.3441 280.039 44.7151 280.039 46.141C280.039 47.5668 279.49 48.9379 278.505 49.969C277.52 51.0001 276.176 51.612 274.751 51.6775C273.879 51.675 273.021 51.4624 272.249 51.0578L263.234 60.0729C262.922 60.3829 262.504 60.5627 262.065 60.5756L103.231 60.5756L71.3799 92.4149C71.0702 92.728 70.6508 92.9083 70.2106 92.9177L24.3518 92.9177C24.1334 92.9149 23.9177 92.869 23.7171 92.7828C23.5164 92.6965 23.3348 92.5715 23.1825 92.4149L12.7527 81.985L-4.93844 81.985L-12.4218 89.5034L-12.4218 159.309L36.4304 159.309L50.4616 145.278L50.4616 136.239C50.471 135.799 50.6513 135.38 50.9644 135.07L57.5825 128.452C57.1742 127.68 56.9577 126.822 56.9511 125.95C56.9511 124.853 57.2761 123.782 57.8851 122.87C58.4941 121.959 59.3597 121.249 60.3725 120.829C61.3852 120.41 62.4996 120.3 63.5747 120.514C64.6498 120.728 65.6373 121.255 66.4124 122.031C67.1876 122.806 67.7154 123.793 67.9293 124.868C68.1431 125.943 68.0334 127.058 67.6139 128.071C67.1944 129.083 66.484 129.949 65.5726 130.558C64.6612 131.167 63.5896 131.492 62.4934 131.492C61.6208 131.485 60.7625 131.269 59.9912 130.861L53.8642 136.988L53.8642 146.014C53.8579 146.453 53.6819 146.872 53.3731 147.184L38.3129 162.244C38.0032 162.557 37.5839 162.737 37.1436 162.747L-13.4508 162.747L-39.315 188.611C-38.7724 189.684 -38.5951 190.905 -38.81 192.088C-39.0249 193.271 -39.6204 194.351 -40.5057 195.165C-41.3911 195.979 -42.5179 196.481 -43.7149 196.595C-44.9118 196.71 -46.1135 196.43 -47.137 195.799C-48.1604 195.168 -48.9498 194.22 -49.3849 193.099C-49.8201 191.978 -49.8773 190.745 -49.5478 189.589C-49.2183 188.433 -48.5201 187.416 -47.5595 186.692C-46.5989 185.969 -45.4284 185.579 -44.226 185.582C-43.3542 185.585 -42.4959 185.798 -41.7237 186.202L-15.8243 160.314L-15.8243 88.8019C-15.8181 88.3633 -15.6421 87.9441 -15.3333 87.6326L-6.80932 79.1086C-6.49777 78.7998 -6.07864 78.6238 -5.64004 78.6175L13.384 78.6175C13.8226 78.6238 14.2417 78.7998 14.5533 79.1086L24.9832 89.5502L69.4272 89.5502L101.278 57.6992C101.589 57.3872 102.007 57.2071 102.447 57.1965L261.316 57.1965L269.84 48.6842C269.396 47.8438 269.179 46.9026 269.208 45.9527C269.238 45.0028 269.514 44.0769 270.009 43.2657C270.504 42.4546 271.201 41.786 272.033 41.3257C272.864 40.8653 273.801 40.6289 274.751 40.6396L274.751 40.6045Z" fill="#09C48C"/>
<path d="M-60.7242 183.209C-59.8518 183.218 -58.9942 183.434 -58.2219 183.84L-23.1438 148.762L-23.1438 84.5455C-23.1332 84.1055 -22.953 83.6866 -22.641 83.3762L-8.11866 68.8539C-7.96641 68.6973 -7.78476 68.5723 -7.58412 68.486C-7.38348 68.3997 -7.16777 68.3539 -6.94938 68.3511L0.966603 68.3511C1.37313 67.0984 2.21335 66.0318 3.33612 65.3434C4.45889 64.6549 5.7905 64.3897 7.09136 64.5955C8.39222 64.8013 9.57695 65.4646 10.4324 66.466C11.2878 67.4674 11.7578 68.7412 11.7578 70.0583C11.7578 71.3753 11.2878 72.6491 10.4324 73.6505C9.57695 74.6519 8.39222 75.3152 7.09136 75.5209C5.7905 75.7267 4.45889 75.4616 3.33612 74.7731C2.21335 74.0846 1.37313 73.0181 0.966604 71.7654L-6.24778 71.7654L-19.7646 85.2822L-19.7646 149.463C-19.7799 149.902 -19.9593 150.32 -20.2674 150.633L-55.8132 186.202C-55.4086 186.974 -55.1961 187.832 -55.1935 188.704C-55.1935 189.801 -55.5188 190.873 -56.1284 191.785C-56.7379 192.696 -57.6042 193.407 -58.6176 193.826C-59.631 194.245 -60.746 194.354 -61.8214 194.139C-62.8968 193.924 -63.8844 193.395 -64.659 192.619C-65.4337 191.843 -65.9606 190.854 -66.1731 189.778C-66.3857 188.702 -66.2742 187.588 -65.8529 186.575C-65.4316 185.563 -64.7194 184.698 -63.8065 184.09C-62.8935 183.483 -61.8208 183.16 -60.7242 183.162L-60.7242 183.209Z" fill="#09C48C"/>
<path d="M255.471 38.5232C256.296 38.5205 257.111 38.702 257.857 39.0547C258.603 39.4073 259.261 39.9221 259.783 40.5614C260.305 41.2008 260.677 41.9485 260.873 42.7502C261.069 43.5518 261.083 44.3871 260.915 45.195C260.747 46.0029 260.4 46.763 259.901 47.4199C259.401 48.0768 258.762 48.6139 258.028 48.992C257.295 49.3701 256.486 49.5795 255.661 49.6052C254.836 49.6308 254.016 49.472 253.261 49.1402L250.735 51.6658C250.423 51.9746 250.004 52.1506 249.566 52.1569L97.4903 52.1569L64.9963 84.6627C64.682 84.9675 64.2646 85.1428 63.827 85.1537L39.2723 85.1537C38.8337 85.1475 38.4146 84.9715 38.103 84.6627L11.5723 58.1319L-12.468 58.1319L-32.2988 77.8692L-32.2988 130.884C-31.0419 131.289 -29.971 132.13 -29.2791 133.255C-28.5873 134.38 -28.3199 135.715 -28.5251 137.02C-28.7303 138.324 -29.3946 139.513 -30.3984 140.371C-31.4022 141.229 -32.6794 141.701 -34.0001 141.701C-35.3208 141.701 -36.5981 141.229 -37.6019 140.371C-38.6056 139.513 -39.27 138.324 -39.4752 137.02C-39.6804 135.715 -39.4129 134.38 -38.721 133.255C-38.0292 132.13 -36.9583 131.289 -35.7014 130.884L-35.7014 77.1559C-35.6927 76.7178 -35.5171 76.2996 -35.2103 75.9867L-14.5142 55.2438C-14.2013 54.937 -13.783 54.7614 -13.3449 54.7527L12.1335 54.7527C12.5711 54.7637 12.9885 54.939 13.3028 55.2438L39.8218 81.7746L63.0552 81.7746L95.561 49.2805C95.7132 49.1239 95.8949 48.9989 96.0955 48.9127C96.2962 48.8264 96.5119 48.7805 96.7303 48.7777L248.736 48.7777L250.665 46.8718C250.164 46.0326 249.894 45.0754 249.884 44.098C249.875 43.1207 250.124 42.1582 250.608 41.309C251.093 40.4599 251.793 39.7545 252.639 39.265C253.485 38.7756 254.446 38.5196 255.424 38.5232L255.471 38.5232Z" fill="#09C48C"/>
</g>
</g>
<defs>
<clipPath id="clip0_697_4179">
<rect width="303" height="197" fill="white"/>
</clipPath>
</defs>
</svg>
