<svg width="64" height="64" viewBox="0 0 64 64" fill="none" xmlns="http://www.w3.org/2000/svg">
<g clip-path="url(#clip0_740_447)">
<mask id="mask0_740_447" style="mask-type:luminance" maskUnits="userSpaceOnUse" x="0" y="0" width="64" height="64">
<path d="M64 0H0V64H64V0Z" fill="white"/>
</mask>
<g mask="url(#mask0_740_447)">
<path d="M34.2148 34.2141H64.3288V0.351074H34.2148V34.2141ZM56.6568 11.7071H52.9568C52.9568 11.9971 52.9568 12.2191 52.9568 12.4421C52.9568 15.3571 52.9828 18.2731 52.9468 21.1871C52.9404 21.9287 52.7858 22.6616 52.4921 23.3426C52.1984 24.0237 51.7716 24.6391 51.2366 25.1528C50.7017 25.6665 50.0694 26.0681 49.377 26.334C48.6847 26.5999 47.9461 26.7247 47.2048 26.7011C46.1425 26.7084 45.1022 26.3989 44.2166 25.8122C43.331 25.2255 42.6403 24.3881 42.2328 23.4071C41.7561 22.4576 41.5775 21.3862 41.7202 20.3333C41.863 19.2805 42.3205 18.2954 43.0328 17.5071C43.6827 16.6792 44.5618 16.0608 45.5607 15.7292C46.5595 15.3976 47.6339 15.3673 48.6498 15.6421C48.8108 15.6781 48.9698 15.7211 49.2218 15.7841V8.00807H56.6618L56.6568 11.7071Z" fill="#09C48C"/>
<path d="M30.4646 0.351074H0.350586V30.4211H30.4646V0.351074ZM8.01059 24.3851V6.55107L22.8666 15.4651L8.01059 24.3851Z" fill="#09C48C"/>
<path d="M34.2568 64.3279H64.3278V37.9619H34.2568V64.3279ZM56.6568 56.6639H41.7638V52.9709H56.6568V56.6639ZM41.7418 45.4839H56.6638V49.1709H41.7418V45.4839Z" fill="#09C48C"/>
<path d="M30.4645 34.249H0.397461V61.704L13.6565 48.444L17.4095 52.226C17.6225 51.968 17.7675 51.76 17.9435 51.584C21.4301 48.092 24.9188 44.6014 28.4095 41.112C29.0865 40.435 30.0175 39.856 30.3515 39.037C30.5582 38.0844 30.5957 37.1027 30.4625 36.137C30.4675 35.501 30.4625 34.866 30.4625 34.248M11.6775 45.432H8.00546V41.76H11.6775V45.432Z" fill="#09C48C"/>
<path d="M13.7086 53.8969L3.30859 64.2969H30.4266V44.4219L17.3266 57.5219L13.7096 53.8879" fill="#09C48C"/>
<path d="M47.3747 19.2211C47.004 19.2131 46.6393 19.3153 46.3267 19.5147C46.0142 19.7142 45.768 20.002 45.6192 20.3416C45.4704 20.6813 45.4259 21.0574 45.4912 21.4224C45.5565 21.7874 45.7287 22.1247 45.986 22.3917C46.2432 22.6587 46.574 22.8432 46.9363 22.922C47.2986 23.0007 47.6762 22.9701 48.0211 22.834C48.366 22.6979 48.6627 22.4625 48.8736 22.1575C49.0845 21.8526 49.2001 21.4919 49.2057 21.1211C49.208 20.6284 49.018 20.1541 48.6761 19.7993C48.3341 19.4444 47.8672 19.237 47.3747 19.2211Z" fill="#09C48C"/>
<path d="M11.7529 13.1783V17.7673L15.5749 15.4673L11.7529 13.1753" fill="#09C48C"/>
</g>
</g>
<defs>
<clipPath id="clip0_740_447">
<rect width="64" height="64" fill="white"/>
</clipPath>
</defs>
</svg>
