<svg width="63" height="63" viewBox="0 0 63 63" fill="none" xmlns="http://www.w3.org/2000/svg">
<g clip-path="url(#clip0_740_541)">
<path d="M51.0669 51.1009H54.6408V54.6457H51.0669V51.1009ZM7.4165 51.1009H10.9953V54.6515H7.4165V51.1009ZM29.247 51.1009H32.8287V54.6515H29.247V51.1009ZM43.8007 51.1009H47.3805V54.6602H43.8007V51.1009ZM36.5384 51.0941H40.0988V54.6447H36.5384V51.0941ZM21.9653 51.0941H25.5238V54.6505H21.9653V51.0941ZM14.703 51.0737H18.2479V54.6505H14.703V51.0737ZM14.703 43.8221H18.2818V47.3582H14.703V43.8221ZM7.4039 43.8221H10.9827V47.3737H7.40778L7.4039 43.8221ZM29.2373 43.8221H32.819V47.3776H29.2412L29.2373 43.8221ZM21.975 43.8221H25.5412V47.3824H21.9799L21.975 43.8221ZM43.7969 43.8221H47.3553V47.3882H43.8027L43.7969 43.8221ZM36.5229 43.8162H40.0871V47.3931H36.5258L36.5229 43.8162ZM51.0882 43.8056H54.6311V47.3824H51.0921L51.0882 43.8056ZM51.0795 36.5607H54.6418V40.1201H51.0824L51.0795 36.5607ZM14.6837 36.553H18.2605V40.1211H14.6866L14.6837 36.553ZM7.40487 36.553H10.9817V40.0988H7.40778L7.40487 36.553ZM43.8124 36.5404H47.3717V40.1017H43.8124V36.5404ZM43.8017 29.2868H47.3611V32.8472H43.8017V29.2868ZM51.0756 29.2868H54.6564V32.8404H51.0815L51.0756 29.2868ZM14.706 29.282H18.245V32.8636H14.7108L14.706 29.282ZM7.41263 29.2684H10.971V32.8491H7.41747L7.41263 29.2684ZM51.0824 21.9886H54.6437V25.548H51.0824V21.9886ZM7.41457 21.9886H10.9778V25.5499H7.41457V21.9886ZM43.7842 21.9886H47.3679V25.5276H43.7862L43.7842 21.9886ZM14.6943 21.9712H18.2527V25.5402H14.6963L14.6943 21.9712ZM21.9799 21.9712H40.0968V40.0881H21.9828L21.9799 21.9712ZM21.9799 14.7069H25.5325V18.2886H21.9867L21.9799 14.7069ZM29.2325 14.7069H32.8151V18.2585H29.2393L29.2325 14.7069ZM43.8046 14.7069H47.3582V18.2867H43.8114L43.8046 14.7069ZM36.5258 14.7069H40.0988V18.2712H36.5326L36.5258 14.7069ZM51.0805 14.7069H54.634V18.2741H51.0873L51.0805 14.7069ZM14.6924 14.7069H18.2469V18.2731H14.6992L14.6924 14.7069ZM7.42426 14.7069H10.9778V18.2653H7.43105L7.42426 14.7069ZM51.0873 7.45627H54.6661V10.9943H51.0873V7.45627ZM29.2441 7.45627H32.8239V11.005H29.2509L29.2441 7.45627ZM14.7108 7.4262H18.2682V10.9914H14.7108V7.4262ZM36.5268 7.40972H40.091V10.9866H36.5268V7.40972ZM21.9877 7.40972H25.5383V10.9914H21.9877V7.40972ZM7.43493 7.40972H10.9807V10.9895H7.43493V7.40972ZM43.8201 7.39905H47.3582V10.9788H43.8192L43.8201 7.39905ZM0 62.0709H62.0709V0H0V62.0709Z" fill="#09C48C"/>
<path d="M37.9831 24.082H24.0967V37.9685H37.9831V24.082Z" fill="#09C48C"/>
</g>
<defs>
<clipPath id="clip0_740_541">
<rect width="62.0709" height="62.0709" fill="white"/>
</clipPath>
</defs>
</svg>
