<svg width="63" height="45" viewBox="0 0 63 45" fill="none" xmlns="http://www.w3.org/2000/svg">
<g clip-path="url(#clip0_740_531)">
<mask id="mask0_740_531" style="mask-type:luminance" maskUnits="userSpaceOnUse" x="0" y="0" width="63" height="45">
<path d="M62.5 0.000976562H0.5V44.322H62.5V0.000976562Z" fill="white"/>
</mask>
<g mask="url(#mask0_740_531)">
<path d="M60.1934 0.000976562H2.80664C1.10506 0.000976562 0.5 0.608681 0.5 2.31554C0.5 15.5465 0.5 28.7786 0.5 42.0119C0.5 43.717 1.10594 44.3247 2.80752 44.3247H60.1951C61.8958 44.3247 62.5009 43.717 62.5009 42.0101V2.31378C62.5035 0.606039 61.8976 0.000976562 60.1934 0.000976562ZM55.3854 9.79119C55.7322 9.7886 56.0761 9.85508 56.3969 9.98673C56.7178 10.1184 57.0092 10.3126 57.2542 10.558C57.4993 10.8035 57.693 11.0952 57.8241 11.4163C57.9552 11.7374 58.0211 12.0813 58.0179 12.4281C58.0238 12.7785 57.9598 13.1265 57.8296 13.4519C57.6995 13.7773 57.5058 14.0735 57.2599 14.3231C57.0139 14.5728 56.7207 14.771 56.3974 14.9061C56.074 15.0412 55.727 15.1105 55.3766 15.11C55.0261 15.1094 54.6793 15.0391 54.3563 14.903C54.0334 14.767 53.7408 14.5679 53.4956 14.3175C53.2505 14.0671 53.0577 13.7703 52.9285 13.4446C52.7993 13.1188 52.7363 12.7705 52.7432 12.4202C52.7411 12.0732 52.8081 11.7293 52.9403 11.4085C53.0725 11.0877 53.2673 10.7965 53.5132 10.5518C53.7592 10.3071 54.0514 10.1138 54.3728 9.98317C54.6943 9.85259 55.0385 9.78733 55.3854 9.79119ZM58.0179 22.272C58.0216 22.7932 57.8707 23.3037 57.5844 23.7393C57.2982 24.1748 56.8893 24.5157 56.4095 24.7191C55.9296 24.9224 55.4002 24.9791 54.8882 24.8819C54.3762 24.7846 53.9044 24.5379 53.5325 24.1729C53.1606 23.8078 52.9051 23.3407 52.7983 22.8306C52.6916 22.3205 52.7384 21.7902 52.9327 21.3066C53.1271 20.823 53.4604 20.4079 53.8905 20.1135C54.3205 19.8192 54.8282 19.6588 55.3493 19.6527C55.6972 19.647 56.0428 19.7105 56.3659 19.8395C56.689 19.9685 56.9833 20.1604 57.2316 20.4041C57.4799 20.6478 57.6773 20.9385 57.8123 21.2592C57.9473 21.5798 58.0172 21.9241 58.0179 22.272ZM48.2251 39.1107H5.71481V5.20258H48.2251V39.1107ZM57.1936 35.7904C56.5876 35.8098 55.9808 35.7904 55.374 35.7957C54.7883 35.7957 54.2026 35.808 53.6125 35.7957C53.4438 35.8081 53.2743 35.7863 53.1142 35.7315C52.9541 35.6767 52.8068 35.59 52.6811 35.4767C52.5554 35.3634 52.454 35.2258 52.3829 35.0723C52.3118 34.9187 52.2726 34.7524 52.2675 34.5833C52.2625 34.4141 52.2917 34.2457 52.3535 34.0882C52.4153 33.9307 52.5083 33.7873 52.627 33.6667C52.7457 33.5461 52.8875 33.4508 53.0441 33.3865C53.2006 33.3222 53.3685 33.2903 53.5377 33.2926C54.7707 33.2603 56.0037 33.2603 57.2367 33.2926C57.4009 33.2957 57.5628 33.3311 57.7132 33.3967C57.8637 33.4623 57.9997 33.557 58.1136 33.6752C58.2275 33.7934 58.317 33.9329 58.377 34.0857C58.4369 34.2385 58.4662 34.4016 58.4632 34.5657C58.4601 34.7299 58.4247 34.8918 58.3591 35.0422C58.2935 35.1927 58.1988 35.3287 58.0806 35.4426C57.9624 35.5565 57.8229 35.646 57.6701 35.706C57.5173 35.7659 57.3542 35.7952 57.1901 35.7922M57.2226 31.4546C55.9896 31.488 54.7566 31.488 53.5236 31.4546C53.3574 31.4548 53.1928 31.4219 53.0395 31.3578C52.8862 31.2937 52.7472 31.1997 52.6307 31.0812C52.5142 30.9628 52.4224 30.8222 52.3608 30.6679C52.2993 30.5136 52.2691 30.3485 52.2721 30.1823C52.2751 30.0162 52.3111 29.8523 52.3782 29.7003C52.4453 29.5482 52.542 29.4111 52.6628 29.2969C52.7835 29.1827 52.9258 29.0937 53.0813 29.0352C53.2368 28.9766 53.4024 28.9497 53.5685 28.9559C54.1744 28.9365 54.7813 28.9559 55.3881 28.9506C55.9738 28.9506 56.5595 28.9383 57.1495 28.9506C57.3171 28.9397 57.4852 28.9626 57.6437 29.018C57.8023 29.0734 57.9481 29.1601 58.0725 29.2729C58.1968 29.3858 58.2972 29.5225 58.3677 29.6749C58.4381 29.8274 58.4772 29.9924 58.4826 30.1603C58.488 30.3281 58.4595 30.4954 58.399 30.652C58.3384 30.8086 58.247 30.9515 58.1301 31.0721C58.0132 31.1927 57.8733 31.2885 57.7186 31.3539C57.5639 31.4193 57.3976 31.4529 57.2297 31.4528" fill="#09C48C"/>
<path d="M10.7624 23.416C12.3583 23.4222 13.9542 23.4283 15.5501 23.4098C15.6921 23.3876 15.8371 23.4221 15.9539 23.5058C16.0707 23.5894 16.1499 23.7157 16.1745 23.8573C16.7532 25.5861 17.3538 27.3088 17.9615 29.028C17.9981 29.2043 18.0719 29.3707 18.178 29.5162C18.2841 29.6617 18.42 29.7828 18.5767 29.8715C18.7333 29.9602 18.9071 30.0145 19.0864 30.0306C19.2658 30.0467 19.4464 30.0244 19.6164 29.9651C19.86 29.8639 20.0718 29.6991 20.2297 29.4879C20.3876 29.2767 20.4857 29.0269 20.5139 28.7647C21.1891 26.0808 21.867 23.3975 22.5475 20.7148C22.5986 20.5122 22.6558 20.3114 22.751 19.9565C23.0504 20.8082 23.3049 21.5286 23.5577 22.2464C23.8827 23.172 24.2095 23.4116 25.1712 23.4142C26.1797 23.4142 27.1881 23.4389 28.1948 23.4054C28.2986 23.3849 28.4055 23.3853 28.5091 23.4067C28.6127 23.4281 28.7111 23.47 28.7982 23.5301C28.8854 23.5901 28.9597 23.6669 29.0167 23.7561C29.0737 23.8453 29.1122 23.9449 29.1301 24.0493C29.6638 25.7226 30.2381 27.396 30.8713 29.0351C31.0485 29.4449 31.3715 29.7744 31.7776 29.9598C32.4954 30.2496 33.133 29.7652 33.3629 28.873C33.8834 26.8421 34.3907 24.8076 34.9042 22.7748C35.1244 21.9011 35.3454 21.0278 35.5674 20.1547L35.6951 20.1309C35.9405 20.8355 36.1859 21.54 36.4314 22.2446C36.7537 23.1685 37.0893 23.4151 38.0449 23.4169C39.7476 23.4169 41.4483 23.4169 43.1469 23.4169C44.0885 23.4169 44.6336 22.9598 44.6442 22.1795C44.6565 21.3745 44.1008 20.9024 43.1241 20.8989C41.8223 20.8989 40.5197 20.8786 39.2189 20.9077C39.1299 20.9243 39.0385 20.9231 38.95 20.9041C38.8614 20.8852 38.7776 20.8488 38.7032 20.7972C38.6288 20.7456 38.5654 20.6798 38.5166 20.6035C38.4679 20.5272 38.4348 20.442 38.4192 20.3528C37.8722 18.6794 37.2786 17.021 36.7 15.3582C36.4358 14.6052 36.028 14.2678 35.4106 14.2819C34.7703 14.296 34.3537 14.6862 34.1529 15.4744C33.421 18.358 32.6927 21.2424 31.9282 24.265C31.8321 24.1029 31.7456 23.9353 31.6693 23.763C31.4728 23.2099 31.2905 22.6515 31.0977 22.0976C30.763 21.1287 30.445 20.9042 29.4392 20.9024C28.4105 20.9024 27.3801 20.8725 26.3567 20.9147C25.8643 20.935 25.6812 20.7571 25.5341 20.3061C24.9951 18.6512 24.405 17.014 23.8325 15.374C23.5612 14.5937 23.1279 14.2414 22.4911 14.2819C21.8746 14.3216 21.4836 14.6932 21.2881 15.4595C20.5741 18.2631 19.8622 21.0674 19.1523 23.8722C19.1276 23.97 19.0889 24.0642 19.0008 24.3276C18.7005 23.4724 18.4521 22.7634 18.202 22.0544C17.8743 21.1287 17.5599 20.9015 16.5806 20.9006C14.6488 20.9006 12.7171 20.9006 10.7853 20.9006C9.84207 20.9006 9.30131 21.3613 9.2969 22.146C9.2925 22.9307 9.83767 23.4098 10.7686 23.4134" fill="#09C48C"/>
</g>
</g>
<defs>
<clipPath id="clip0_740_531">
<rect width="62" height="44.3211" fill="white" transform="translate(0.5)"/>
</clipPath>
</defs>
</svg>
