<svg width="64" height="57" viewBox="0 0 64 57" fill="none" xmlns="http://www.w3.org/2000/svg">
<g clip-path="url(#clip0_740_472)">
<mask id="mask0_740_472" style="mask-type:luminance" maskUnits="userSpaceOnUse" x="0" y="0" width="64" height="57">
<path d="M64 0H0V56.272H64V0Z" fill="white"/>
</mask>
<g mask="url(#mask0_740_472)">
<path d="M64 19.7882C63.793 20.9092 63.639 22.0442 63.361 23.1482C63.1003 24.0892 62.782 25.0133 62.408 25.9152C62.3543 26.0126 62.2782 26.0959 62.1861 26.1583C62.094 26.2207 61.9884 26.2604 61.878 26.2742C56.878 26.2932 51.878 26.2812 46.884 26.3022C46.384 26.3022 46.37 25.9742 46.272 25.6802C44.7227 21.0456 43.1767 16.4099 41.634 11.7732C41.571 11.5842 41.496 11.3982 41.359 11.0302L33.948 33.2602L33.807 33.2672L31.473 26.2902H24.973C23.973 26.2902 23.973 26.2902 23.659 25.3522C22.153 20.8342 20.6477 16.3169 19.143 11.8002C19.078 11.6052 19.008 11.4122 18.889 11.0732C18.77 11.3732 18.689 11.5412 18.63 11.7202C17.084 16.3562 15.5427 20.9936 14.006 25.6322C13.9916 25.7357 13.9567 25.8353 13.9036 25.9253C13.8504 26.0152 13.78 26.0938 13.6963 26.1563C13.6126 26.2189 13.5174 26.2643 13.416 26.2898C13.3147 26.3154 13.2093 26.3206 13.106 26.3052C9.506 26.2762 5.901 26.2812 2.298 26.3052C2.11806 26.3293 1.93555 26.2862 1.78538 26.1842C1.6352 26.0822 1.52791 25.9284 1.484 25.7522C0.768205 24.018 0.304822 22.19 0.108 20.3242C0.0816463 20.1437 0.0455941 19.9648 0 19.7882L0 16.7882C0.039 16.5882 0.094 16.3882 0.115 16.1882C0.423573 12.771 1.65705 9.50236 3.683 6.73322C5.79822 3.83479 8.812 1.71663 12.2556 0.708209C15.6991 -0.30021 19.3794 -0.142355 22.724 1.15722C26.2076 2.67203 29.1254 5.24587 31.063 8.51322C31.375 8.99622 31.663 9.49522 31.997 10.0472C32.11 9.87222 32.181 9.75422 32.26 9.64122C33.0692 8.35841 33.9444 7.11841 34.882 5.92622C39.268 0.855222 44.776 -1.12278 51.3 0.621222C57.793 2.35722 61.619 6.86622 63.356 13.2402C63.671 14.3952 63.79 15.6042 64 16.7882V19.7882Z" fill="#09C48C"/>
<path d="M31.9774 56.2771C30.5444 55.0501 29.1184 53.8371 27.7024 52.6151C22.3254 47.9751 16.9194 43.3681 11.5914 38.6741C8.93622 36.3559 6.54052 33.7563 4.4464 30.9211C4.2634 30.6721 4.0924 30.4141 3.8584 30.0771H16.4584L18.8004 23.0771H18.9394L21.2744 30.0541C23.5364 30.0541 25.7844 30.0781 28.0314 30.0381C28.144 30.0186 28.2594 30.022 28.3707 30.0481C28.482 30.0742 28.5869 30.1224 28.6792 30.1898C28.7715 30.2573 28.8493 30.3426 28.9079 30.4408C28.9665 30.5389 29.0048 30.6479 29.0204 30.7611C30.5334 35.3871 32.0844 40.0011 33.6204 44.6181C33.6784 44.7911 33.7474 44.9601 33.8804 45.3181L41.3444 22.9341C41.4754 23.2601 41.5564 23.4341 41.6184 23.6211C42.2794 25.5931 42.9524 27.5611 43.5864 29.5421C43.5998 29.6255 43.6297 29.7054 43.6743 29.7772C43.7189 29.8489 43.7774 29.9111 43.8463 29.9601C43.9151 30.009 43.993 30.0438 44.0755 30.0623C44.1579 30.0809 44.2432 30.0828 44.3264 30.0681C49.3464 30.0521 54.3664 30.0581 59.3874 30.0581H60.1764C59.7764 30.6081 59.4654 31.0651 59.1294 31.5041C56.4743 34.8808 53.4796 37.976 50.1924 40.7411C44.2114 45.9241 38.1694 51.0411 32.1514 56.1781C32.0928 56.2184 32.0321 56.2555 31.9694 56.2891" fill="#09C48C"/>
</g>
</g>
<defs>
<clipPath id="clip0_740_472">
<rect width="64" height="56.272" fill="white"/>
</clipPath>
</defs>
</svg>
