<svg width="64" height="64" viewBox="0 0 64 64" fill="none" xmlns="http://www.w3.org/2000/svg">
<g clip-path="url(#clip0_740_460)">
<mask id="mask0_740_460" style="mask-type:luminance" maskUnits="userSpaceOnUse" x="0" y="0" width="64" height="64">
<path d="M64 0H0V64H64V0Z" fill="white"/>
</mask>
<g mask="url(#mask0_740_460)">
<path d="M0 61.001C0.108 60.562 0.207 60.121 0.326 59.684C0.854414 57.6513 2.04655 55.8532 3.71324 54.5751C5.37994 53.297 7.42573 52.612 9.526 52.629C20.708 52.623 31.89 52.623 43.072 52.629C44.3244 52.6195 45.5663 52.8584 46.7258 53.3319C47.8854 53.8053 48.9395 54.504 49.8273 55.3874C50.7151 56.2708 51.419 57.3215 51.8982 58.4787C52.3773 59.6359 52.6223 60.8766 52.619 62.129C52.619 62.754 52.619 63.378 52.619 64.003H0V61.003" fill="#09C48C"/>
<path d="M63.9892 14.6342C61.4062 15.9212 58.8202 17.2032 56.2422 18.5002C56.071 18.6078 55.8739 18.667 55.6718 18.6715C55.4697 18.6761 55.2701 18.6259 55.0942 18.5262C53.3942 17.6582 51.6722 16.8472 49.8732 15.9742V18.7582C48.2732 18.7582 46.7442 18.7452 45.2122 18.7582C44.0271 18.8641 42.8342 18.6773 41.7382 18.2142C40.7621 17.7758 39.9357 17.0611 39.3611 16.1583C38.7866 15.2555 38.489 14.2042 38.5052 13.1342C38.4612 10.6592 38.4842 8.18223 38.4972 5.70623C38.479 4.39427 38.9214 3.11744 39.7474 2.09805C40.5735 1.07865 41.7309 0.381237 43.0182 0.12723C43.1368 0.0946288 43.2536 0.0559103 43.3682 0.0112305L49.8682 0.0112305V2.82123C51.1342 2.20823 52.3092 1.64923 53.4742 1.07123C54.1552 0.73423 54.8202 0.36623 55.4922 0.0112305H55.7422C56.1592 0.23323 56.5722 0.466231 56.9952 0.67623C59.3285 1.83223 61.6619 2.98523 63.9952 4.13523V4.26023L62.2952 7.52123C60.2102 6.47823 58.1722 5.44623 56.1162 4.44823C55.8482 4.32516 55.5426 4.31223 55.2652 4.41223C53.5882 5.19023 51.9362 6.02323 50.2652 6.81223C50.1311 6.8597 50.0175 6.95197 49.9435 7.07349C49.8696 7.195 49.8398 7.33831 49.8592 7.47923C49.8802 8.74823 49.8822 10.0182 49.8592 11.2872C49.8397 11.4388 49.8734 11.5924 49.9546 11.7219C50.0357 11.8514 50.1593 11.9487 50.3042 11.9972C51.571 12.5255 52.804 13.1313 53.9962 13.8112C54.4892 14.1562 55.0777 14.3383 55.6793 14.3321C56.281 14.3258 56.8656 14.1314 57.3512 13.7762C58.9402 12.8472 60.6362 12.1022 62.2942 11.2762L63.9942 14.5092L63.9892 14.6342Z" fill="#09C48C"/>
<path d="M14.3734 0.0112305C14.8734 0.13623 15.3734 0.24723 15.8734 0.38923C18.0869 1.03601 19.984 2.47648 21.2016 4.43484C22.4192 6.3932 22.8717 8.73184 22.4725 11.003C22.0733 13.2742 20.8503 15.3184 19.0379 16.7441C17.2255 18.1699 14.9508 18.877 12.6495 18.7302C10.3481 18.5834 8.18182 17.5929 6.56525 15.9484C4.94868 14.3039 3.99546 12.1209 3.8881 9.81738C3.78073 7.51387 4.52675 5.25168 5.98334 3.46393C7.43993 1.67618 9.50474 0.488484 11.7824 0.12823C11.8993 0.0991059 12.0133 0.0599609 12.1234 0.0112305L14.3734 0.0112305ZM15.0734 7.56023H11.4074V11.2322H15.0784L15.0734 7.56023Z" fill="#09C48C"/>
<path d="M38.7196 48.8564H26.3846V45.1614H22.6476V48.8374H10.2666C10.3576 48.6294 10.4316 48.4374 10.5226 48.2604C12.2056 44.8934 13.8966 41.5304 15.5666 38.1604C15.6248 37.9887 15.7396 37.8418 15.8922 37.7439C16.0449 37.6459 16.2262 37.6028 16.4066 37.6214C21.8013 37.6394 27.1956 37.6424 32.5896 37.6304C32.9076 37.6304 33.1646 37.6224 33.3486 37.9934C35.0896 41.5174 36.8536 45.0304 38.6096 48.5474C38.6528 48.6493 38.6906 48.7535 38.7226 48.8594" fill="#09C48C"/>
<path d="M28.9155 33.8515C28.6705 33.8635 28.5095 33.8785 28.3485 33.8785C24.6205 33.8785 20.8925 33.8805 17.1645 33.8845C16.8485 33.8845 16.6455 33.8405 16.4995 33.4965C14.9785 29.8965 13.4365 26.3035 11.8995 22.7095C11.8675 22.6345 11.8525 22.5515 11.8115 22.4095C13.7449 22.6297 15.703 22.4156 17.543 21.7828C19.3831 21.1499 21.0587 20.1143 22.4475 18.7515L28.9125 33.8515" fill="#09C48C"/>
<path d="M34.7131 3.80036V14.9784H25.0791C25.9263 13.2365 26.3665 11.3248 26.3665 9.38786C26.3665 7.45089 25.9263 5.53925 25.0791 3.79736L34.7131 3.80036Z" fill="#09C48C"/>
</g>
</g>
<defs>
<clipPath id="clip0_740_460">
<rect width="64" height="64" fill="white"/>
</clipPath>
</defs>
</svg>
