<svg width="63" height="63" viewBox="0 0 63 63" fill="none" xmlns="http://www.w3.org/2000/svg">
<g clip-path="url(#clip0_740_508)">
<mask id="mask0_740_508" style="mask-type:luminance" maskUnits="userSpaceOnUse" x="0" y="-1" width="63" height="64">
<path d="M62.0729 -0.000488281H0.00195312V62.1054H62.0729V-0.000488281Z" fill="white"/>
</mask>
<g mask="url(#mask0_740_508)">
<path d="M48.8828 62.1057H48.7567C48.6239 61.9573 48.4968 61.8012 48.3562 61.6606C43.5269 56.8578 38.6954 52.057 33.8616 47.2582C33.6738 47.0962 33.4758 46.9462 33.2691 46.8091L38.4258 41.664L35.8188 39.0677L23.1331 51.7418L10.2475 38.8572L22.9265 26.1696L20.4534 23.6828L15.3131 28.8338C15.1683 28.6319 15.0133 28.4377 14.8485 28.2519C10.0523 23.4194 5.2518 18.5892 0.447118 13.7612C0.306489 13.6196 0.150341 13.4935 0.00195312 13.3606V13.2394C0.166829 13.0978 0.342373 12.9669 0.495611 12.8127C4.41513 8.87311 8.33206 4.92902 12.2464 0.980408C12.3797 0.827985 12.4964 0.661856 12.5946 0.484811L28.1996 16.0869L23.2 21.0264L25.7808 23.5907L30.9201 18.4272L35.9294 23.4889L38.548 20.8703C33.9964 14.4333 36.2543 7.01002 41.0987 3.05881L48.7858 10.7575C49.7431 9.79933 50.6635 8.89639 51.5519 7.96339C51.5991 7.8746 51.6268 7.77671 51.6329 7.67632C51.6391 7.57594 51.6237 7.47539 51.5877 7.38147C51.1461 6.29375 51.082 5.08934 51.4057 3.9609C51.7294 2.83245 52.4222 1.84515 53.3732 1.15692C54.1618 0.509164 55.1266 0.113041 56.1429 0.0198392C57.1591 -0.0733622 58.1799 0.14065 59.0731 0.634169C60.0315 1.06875 60.8329 1.78767 61.3687 2.69335C61.9045 3.59903 62.1486 4.64763 62.068 5.69683C62.0424 6.55315 61.8121 7.39089 61.3964 8.13997C60.9807 8.88905 60.3916 9.52769 59.6785 10.0025C58.9654 10.4772 58.149 10.7743 57.2975 10.8689C56.446 10.9635 55.5843 10.8528 54.7844 10.5461C54.6826 10.503 54.5724 10.4836 54.462 10.4893C54.3516 10.4951 54.244 10.5257 54.1472 10.5791C53.2113 11.4617 52.3103 12.3821 51.3346 13.3558L59.0537 21.0419C54.8833 26.0706 47.4154 28.0462 41.2694 23.5859L38.5364 26.3112L43.6591 31.3699L38.5955 36.3812L41.2025 39.0105L46.1914 33.9566L61.7092 49.4743C61.5054 49.5847 61.3128 49.7146 61.1341 49.8622C57.1861 53.774 53.242 57.69 49.3018 61.6101C49.1476 61.7634 49.0157 61.9399 48.8741 62.1057" fill="#09C48C"/>
<path d="M19.8629 54.0247C18.1327 54.6066 16.3801 55.1885 14.6257 55.7782C13.9759 55.9955 13.3309 56.2282 12.6704 56.4077C12.5651 56.4342 12.4552 56.4376 12.3484 56.4176C12.2416 56.3977 12.1404 56.3549 12.0517 56.2922C9.95224 54.2232 7.86737 52.1406 5.79704 50.0444C5.73827 49.9743 5.696 49.8919 5.67334 49.8033C5.65068 49.7146 5.64821 49.622 5.66611 49.5323C6.442 47.1377 7.2431 44.75 8.04129 42.3622C8.05445 42.3274 8.07734 42.2971 8.10724 42.2749L19.8629 54.0257" fill="#09C48C"/>
</g>
</g>
<defs>
<clipPath id="clip0_740_508">
<rect width="62.0709" height="62.1058" fill="white"/>
</clipPath>
</defs>
</svg>
