<svg width="62" height="47" viewBox="0 0 62 47" fill="none" xmlns="http://www.w3.org/2000/svg">
<g clip-path="url(#clip0_740_517)">
<mask id="mask0_740_517" style="mask-type:luminance" maskUnits="userSpaceOnUse" x="-1" y="0" width="63" height="47">
<path d="M61.999 0H-0.000976562V46.0735H61.999V0Z" fill="white"/>
</mask>
<g mask="url(#mask0_740_517)">
<path d="M0 26.52C0.3201 25.4477 0.733771 24.4057 1.23624 23.4059C1.84327 22.3735 2.69533 21.5066 3.71706 20.8819C4.7388 20.2571 5.89874 19.8938 7.0943 19.824C7.4353 19.7939 7.77912 19.7808 8.122 19.7808C23.374 19.7808 38.6257 19.7808 53.8771 19.7808C55.5544 19.7007 57.2121 20.1695 58.5992 21.116C59.9863 22.0625 61.0271 23.4353 61.5641 25.0263C61.8084 25.7321 61.9456 26.4706 61.9709 27.217C62.0188 29.9854 61.9925 32.7594 61.9925 35.524C61.9925 35.618 61.9784 35.7119 61.9699 35.8369H41.1887V28.6233H20.8611V35.8566H0V26.5153M8.36061 28.5491H16.5484V24.9671H8.36061V28.5491ZM53.6497 24.9897H45.4526V28.5434H53.6497V24.9897Z" fill="#09C48C"/>
<path d="M-0.000148674 11.5978C1.12712 11.6034 2.26003 11.6269 3.38918 11.6043C3.58731 11.588 3.78651 11.6184 3.97073 11.6931C4.15494 11.7678 4.31903 11.8848 4.44976 12.0346C5.17028 12.818 5.93025 13.5658 6.76631 14.4225L10.2223 0H51.7717L55.2184 14.3802C55.8966 13.7011 56.5457 13.1374 57.0896 12.4855C57.3366 12.1595 57.6661 11.9052 58.044 11.749C58.422 11.5928 58.8349 11.5403 59.2399 11.5968C60.1183 11.6757 61.0088 11.6137 61.9407 11.6137V15.2529C61.2831 15.2529 60.6424 15.2144 60.0065 15.2698C59.681 15.2945 59.373 15.4267 59.1309 15.6456C58.9696 15.8205 58.771 15.957 58.5499 16.0449C58.3288 16.1329 58.0908 16.1701 57.8534 16.1538C54.7862 16.1322 51.7182 16.1435 48.6473 16.1435H47.8733C47.8733 15.5207 47.8733 14.9786 47.8733 14.4375C47.9228 13.6979 47.8142 12.9563 47.5546 12.2619C47.2951 11.5676 46.8906 10.9366 46.368 10.4108C45.8455 9.88507 45.2169 9.4767 44.5242 9.21292C43.8314 8.94914 43.0904 8.836 42.3506 8.88103C41.2007 8.88103 40.05 8.87164 38.9002 8.88103C38.1805 8.85081 37.4624 8.97018 36.7913 9.23162C36.1201 9.49306 35.5105 9.89087 35.0009 10.3999C34.4913 10.909 34.0929 11.5182 33.8308 12.1891C33.5686 12.8599 33.4485 13.5779 33.478 14.2976C33.4695 14.88 33.478 15.4634 33.478 16.0946H28.5142C28.5142 15.4784 28.5245 14.8612 28.5142 14.244C28.5504 13.0306 28.1615 11.8427 27.4146 10.8857C26.6677 9.92875 25.6099 9.26284 24.4241 9.00315C24.1494 8.93792 23.8684 8.90295 23.5862 8.89888C22.0728 8.88855 20.5575 8.83876 19.047 8.90639C17.7612 8.95734 16.542 9.49178 15.6332 10.4028C14.7244 11.3139 14.193 12.5344 14.1452 13.8204C14.1067 14.5625 14.1396 15.3084 14.1396 16.1087C13.8456 16.1219 13.6305 16.1388 13.4153 16.1397C10.2674 16.1397 7.1214 16.1519 3.97161 16.1238C3.62376 16.1093 3.29172 15.9745 3.03222 15.7424C2.88121 15.5702 2.69232 15.4355 2.48041 15.3488C2.2685 15.2621 2.03935 15.2257 1.811 15.2426C1.20979 15.2868 0.601063 15.2426 -0.00390625 15.2426L-0.000148674 11.5978Z" fill="#09C48C"/>
<path d="M15.5461 39.537C15.7077 41.9456 14.9825 43.9089 12.9215 45.1734C12.0175 45.7824 10.9465 46.0952 9.85682 46.0684C8.76716 46.0417 7.7128 45.6767 6.83982 45.024C5.96198 44.4302 5.27184 43.5982 4.85051 42.6257C4.42918 41.6532 4.29414 40.5807 4.46127 39.5342L15.5461 39.537Z" fill="#09C48C"/>
<path d="M46.4477 39.5371H57.5325C57.6996 40.5836 57.5649 41.6561 57.1441 42.6288C56.7233 43.6015 56.0339 44.434 55.1568 45.0288C54.292 45.6748 53.249 46.0386 52.17 46.0705C51.091 46.1025 50.0283 45.801 49.1268 45.2073C47.0301 43.9419 46.288 41.972 46.4477 39.5371Z" fill="#09C48C"/>
<path d="M37.5023 32.2563H24.5029V35.8195H37.5023V32.2563Z" fill="#09C48C"/>
<path d="M24.886 16.1084H17.8293C17.779 15.2708 17.789 14.4307 17.8594 13.5946C17.9098 13.2982 18.065 13.0299 18.2968 12.8385C18.5286 12.6471 18.8214 12.5453 19.1219 12.5518C20.5733 12.5152 22.0265 12.5077 23.477 12.5518C23.8356 12.5684 24.1752 12.7178 24.4298 12.971C24.6843 13.2241 24.8356 13.5629 24.8541 13.9215C24.8775 14.1424 24.8878 14.3645 24.8851 14.5866C24.8851 15.0694 24.8851 15.5513 24.8851 16.1103" fill="#09C48C"/>
<path d="M37.1662 16.1005C37.1662 15.2907 37.1098 14.5035 37.1831 13.7285C37.2267 13.4023 37.387 13.1028 37.6343 12.8856C37.8816 12.6683 38.1992 12.548 38.5283 12.5468C39.9593 12.5105 41.391 12.5105 42.8232 12.5468C43.1609 12.558 43.4838 12.6877 43.7353 12.9133C43.9868 13.1388 44.1508 13.4458 44.1985 13.7802C44.2344 14.0605 44.2495 14.3431 44.2436 14.6257C44.2502 15.1047 44.2436 15.5848 44.2436 16.1005H37.1662Z" fill="#09C48C"/>
</g>
</g>
<defs>
<clipPath id="clip0_740_517">
<rect width="62" height="46.0735" fill="white"/>
</clipPath>
</defs>
</svg>
