<svg width="1112" height="600" viewBox="0 0 1112 600" fill="none" xmlns="http://www.w3.org/2000/svg">
<g opacity="0.4" clip-path="url(#clip0_314_5603)">
<mask id="mask0_314_5603" style="mask-type:luminance" maskUnits="userSpaceOnUse" x="-922" y="-473" width="2111" height="1424">
<path d="M1188.34 950.499H-922V-473H1188.34V950.499Z" fill="white"/>
</mask>
<g mask="url(#mask0_314_5603)">
<g opacity="0.2">
<path d="M-918.944 -435.527L-922 -434.979C-921.788 -433.784 -899.715 -314.025 -818.064 -191.237C-770.098 -119.101 -711.254 -60.0226 -643.168 -15.6556C-558.061 39.8075 -458.21 72.3167 -346.397 80.9537C-307.433 83.9644 -268.109 86.7579 -230.069 89.4626C209.596 120.687 624.884 150.178 826.352 539.509C939.809 758.773 1173.25 939.163 1349.11 1051.88C1539.59 1173.97 1705.4 1245.17 1707.05 1245.87L1708.28 1243.03C1706.62 1242.32 1541.01 1171.2 1350.74 1049.25C1175.22 936.741 942.246 756.733 829.11 538.093C736.775 359.661 597.464 245.065 390.676 177.46C206.977 117.395 -5.20605 102.324 -229.852 86.3701C-267.877 83.6726 -307.205 80.8789 -346.159 77.8683C-598.169 58.3877 -740.477 -80.158 -815.482 -192.952C-896.774 -315.21 -918.731 -434.335 -918.944 -435.527Z" fill="#27AE60"/>
<path d="M-857.663 -528.809L-860.756 -528.567C-860.653 -527.208 -849.222 -391.242 -774.6 -257.735C-730.739 -179.269 -673.963 -116.973 -605.841 -72.5811C-520.689 -17.0895 -417.332 10.4019 -299.182 9.16345C179.972 4.03174 628.837 38.6405 852.045 510.776C901.732 616.374 981.028 715.565 1087.74 805.584C1173.05 877.57 1276 943.884 1393.69 1002.69C1594.05 1102.81 1770.13 1147.01 1771.88 1147.43L1772.64 1144.44C1770.88 1144 1595.09 1099.87 1395.02 999.897C1210.48 907.677 966.967 747.74 854.856 509.456C755.154 298.568 603.409 159.592 390.945 84.5946C183.473 11.3627 -63.3757 3.59045 -299.221 6.06738C-301.755 6.09229 -304.306 6.10999 -306.819 6.10999C-568.33 6.10999 -703.963 -137.77 -771.835 -259.148C-846.16 -392.075 -857.554 -527.457 -857.663 -528.809Z" fill="#27AE60"/>
<path d="M-796.394 -622.117H-799.499C-799.499 -619.227 -797.437 -331.129 -620.043 -169.409C-527.479 -85.0238 -403.645 -49.0946 -251.985 -62.6427C358.955 -117.223 686.229 40.6072 877.735 482.041C926.992 596.402 1008.09 697.37 1118.76 782.154C1207.26 849.938 1314.76 907.583 1438.28 953.482C1648.53 1031.61 1834.86 1048.79 1836.72 1048.95L1837 1045.87C1835.14 1045.71 1649.16 1028.55 1439.29 950.555C1245.73 878.618 991.676 738.728 880.586 480.817C778.76 246.107 634.516 90.9066 439.604 6.36145C265.012 -69.3865 45.1771 -92.2906 -252.267 -65.7281C-403.047 -52.2512 -526.059 -87.9205 -617.952 -171.697C-794.345 -332.503 -796.394 -619.242 -796.394 -622.117Z" fill="#27AE60"/>
<path d="M-738.235 -715.641C-738.446 -712.352 -756.954 -384.951 -574.994 -220.227C-484.642 -138.429 -360.093 -109.589 -204.804 -134.451C378.155 -227.871 699.257 -57.5855 903.433 453.319C952.263 576.43 1035.16 679.189 1149.81 758.726C1241.48 822.313 1353.54 871.283 1482.86 904.262C1703 960.397 1899.58 950.53 1901.54 950.444L1901.37 947.349C1899.43 947.47 1703.23 957.27 1483.56 901.245C1280.98 849.573 1016.39 729.724 906.319 452.173C853.764 320.66 794.785 214.684 726.019 128.188C656.588 40.8602 578.818 -24.5781 488.266 -71.8596C311.51 -164.149 91.1099 -185.006 -205.302 -137.511C-359.581 -112.778 -483.283 -141.387 -572.909 -222.519C-753.772 -386.254 -735.351 -712.171 -735.138 -715.448L-738.235 -715.641Z" fill="#27AE60"/>
<path d="M-676.978 -809.155C-677.087 -808.237 -687.467 -715.77 -674.764 -603.961C-663.024 -500.665 -628.612 -359.237 -531.332 -272.101C-442.655 -192.659 -316.917 -170.52 -157.642 -206.268C141.73 -273.485 361.903 -254.791 535.282 -147.452C696.753 -47.4801 821.903 134.286 929.128 424.588C977.524 556.464 1062.21 661.001 1180.83 735.284C1275.68 794.676 1392.3 834.958 1527.46 855.018C1757.47 889.146 1964.26 852.262 1966.32 851.893L1965.77 848.845C1963.71 849.226 1757.33 886.02 1527.83 851.941C1316.23 820.528 1041.1 720.702 932.039 423.524C824.562 132.539 699.012 -49.7292 536.919 -150.079C362.796 -257.873 141.876 -276.688 -158.325 -209.293C-316.558 -173.773 -441.37 -195.663 -529.254 -274.396C-625.798 -360.867 -659.987 -501.501 -671.673 -604.239C-684.352 -715.717 -674.001 -807.888 -673.898 -808.806L-676.978 -809.155Z" fill="#27AE60"/>
<path d="M-615.711 -902.652C-615.874 -901.631 -631.86 -799.285 -624.243 -677.583C-617.202 -565.116 -587.992 -412.63 -488.806 -324.872C-401.392 -247.526 -274.1 -231.782 -110.483 -278.092C194.95 -364.527 415.55 -347.9 583.74 -225.793C731.367 -118.607 842.347 67.3058 954.832 395.871C1002.79 536.502 1089.28 642.815 1211.88 711.845C1309.9 767.036 1431.07 798.63 1572.04 805.757C1811.85 817.886 2028.92 753.983 2031.09 753.33L2030.19 750.368C2028.03 751.008 1811.48 814.772 1572.12 802.663C1351.49 791.497 1065.81 711.683 957.768 394.871C845.066 65.6581 733.748 -120.706 585.569 -228.294C416.539 -351.007 195.103 -367.783 -111.333 -281.063C-273.858 -235.07 -400.172 -250.594 -486.749 -327.188C-585.143 -414.243 -614.141 -565.888 -621.145 -677.775C-628.743 -799.139 -612.806 -901.154 -612.642 -902.168L-615.711 -902.652Z" fill="#27AE60"/>
<path d="M-554.445 -996.136C-554.662 -995.018 -576.376 -882.836 -574.023 -751.347C-571.846 -629.83 -548.075 -466.477 -447.202 -378.38C-360.749 -302.877 -231.606 -293.287 -63.3376 -349.906C196.544 -437.338 387.844 -442.562 538.696 -366.344C745.562 -261.82 861.129 -8.18823 980.539 367.146C1029.81 522.047 1122.82 632.43 1256.98 695.232C1434.02 778.111 1652.69 762.689 1804.97 735.145C1969.86 705.321 2094.58 655.264 2095.82 654.762L2094.65 651.897C2093.42 652.4 1968.95 702.347 1804.35 732.111C1652.55 759.552 1434.59 774.95 1258.29 692.426C1124.95 630.005 1032.5 520.254 983.497 366.217C863.844 -9.89642 747.932 -264.091 540.105 -369.109C388.463 -445.733 196.401 -440.558 -64.3304 -352.846C-231.464 -296.603 -359.596 -305.998 -445.152 -380.711C-545.178 -468.064 -568.753 -630.51 -570.918 -751.404C-573.264 -882.569 -551.616 -994.427 -551.398 -995.545L-554.445 -996.136Z" fill="#27AE60"/>
</g>
</g>
</g>
<defs>
<clipPath id="clip0_314_5603">
<rect width="1112" height="717.969" fill="white" transform="matrix(1 0 0 -1 0 717.97)"/>
</clipPath>
</defs>
</svg>
