<svg width="587" height="379" viewBox="0 0 587 379" fill="none" xmlns="http://www.w3.org/2000/svg">
<g clip-path="url(#clip0_314_4473)">
<mask id="mask0_314_4473" style="mask-type:luminance" maskUnits="userSpaceOnUse" x="-527" y="-372" width="1114" height="752">
<path d="M587 -372H-527V379.433H587V-372Z" fill="white"/>
</mask>
<g mask="url(#mask0_314_4473)">
<g opacity="0.2">
<path d="M-525.387 359.652L-527 359.363C-526.888 358.732 -515.236 295.514 -472.134 230.697C-446.815 192.618 -415.752 161.432 -379.811 138.011C-334.885 108.734 -282.175 91.5726 -223.152 87.0133C-202.584 85.4241 -181.825 83.9494 -161.745 82.5217C70.3445 66.0389 289.566 50.4711 395.916 -155.048C455.807 -270.792 579.037 -366.016 671.869 -425.519C772.416 -489.964 859.947 -527.552 860.819 -527.922L861.465 -526.422C860.591 -526.049 773.166 -488.506 672.729 -424.126C580.078 -364.738 457.094 -269.716 397.372 -154.3C348.63 -60.1098 275.091 0.382446 165.932 36.0699C68.9619 67.7766 -43.0449 75.7324 -161.631 84.1541C-181.703 85.5781 -202.463 87.0528 -223.026 88.6421C-356.057 98.9254 -431.178 172.061 -470.772 231.602C-513.684 296.139 -525.275 359.023 -525.387 359.652Z" fill="#27AE60"/>
<path d="M-493.038 408.893L-494.671 408.766C-494.617 408.048 -488.583 336.275 -449.191 265.8C-426.038 224.379 -396.067 191.494 -360.107 168.061C-315.157 138.768 -260.598 124.256 -198.229 124.91C54.7058 127.619 291.652 109.349 409.478 -139.88C435.707 -195.623 477.566 -247.984 533.895 -295.503C578.932 -333.503 633.274 -368.509 695.401 -399.551C801.169 -452.4 894.117 -475.732 895.041 -475.958L895.438 -474.376C894.513 -474.146 801.713 -450.849 696.105 -398.076C598.687 -349.395 470.143 -264.969 410.962 -139.183C358.332 -27.8605 278.229 45.502 166.074 85.0912C56.5543 123.749 -73.7517 127.852 -198.249 126.544C-199.587 126.531 -200.934 126.522 -202.26 126.522C-340.306 126.522 -411.904 202.473 -447.732 266.545C-486.966 336.714 -492.981 408.179 -493.038 408.893Z" fill="#27AE60"/>
<path d="M-460.696 458.148H-462.335C-462.335 456.623 -461.247 304.542 -367.604 219.173C-318.742 174.628 -253.372 155.662 -173.315 162.814C149.187 191.626 321.947 108.311 423.04 -124.713C449.041 -185.081 491.848 -238.38 550.272 -283.135C596.989 -318.917 653.735 -349.347 718.937 -373.575C829.926 -414.818 928.286 -423.887 929.265 -423.973L929.414 -422.346C928.433 -422.259 830.258 -413.202 719.473 -372.031C617.297 -334.057 483.186 -260.212 424.544 -124.066C370.792 -0.168091 294.65 81.7588 191.76 126.388C99.5964 166.374 -16.4493 178.465 -173.463 164.443C-253.057 157.329 -317.992 176.158 -366.5 220.381C-459.614 305.267 -460.696 456.63 -460.696 458.148Z" fill="#27AE60"/>
<path d="M-429.995 507.519C-430.107 505.783 -439.876 332.955 -343.824 246.001C-296.129 202.822 -230.383 187.598 -148.409 200.721C159.322 250.036 328.825 160.146 436.605 -109.549C462.381 -174.537 506.139 -228.781 566.659 -270.766C615.05 -304.333 674.204 -330.183 742.474 -347.592C858.677 -377.224 962.45 -372.016 963.482 -371.971L963.392 -370.337C962.368 -370.401 858.801 -375.574 742.84 -345.999C635.904 -318.723 496.233 -255.457 438.128 -108.944C410.385 -39.5211 379.252 16.4212 342.952 62.0802C306.301 108.179 265.248 142.722 217.447 167.681C124.142 216.398 7.79742 227.409 -148.672 202.337C-230.112 189.281 -295.412 204.383 -342.724 247.211C-438.197 333.643 -428.473 505.687 -428.36 507.417L-429.995 507.519Z" fill="#27AE60"/>
<path d="M-397.658 556.883C-397.715 556.398 -403.195 507.587 -396.489 448.565C-390.292 394.038 -372.127 319.381 -320.775 273.384C-273.964 231.448 -207.59 219.762 -123.512 238.632C34.52 274.115 150.744 264.246 242.267 207.585C327.504 154.811 393.568 58.8609 450.17 -94.3827C475.717 -163.997 520.419 -219.18 583.04 -258.392C633.108 -289.744 694.669 -311.008 766.014 -321.597C887.431 -339.612 996.591 -320.142 997.683 -319.948L997.388 -318.339C996.3 -318.54 887.357 -337.962 766.211 -319.973C654.513 -303.39 509.276 -250.695 451.706 -93.821C394.971 59.7833 328.697 155.999 243.131 208.971C151.216 265.873 34.597 275.805 -123.873 240.229C-207.4 221.479 -273.286 233.034 -319.678 274.595C-370.641 320.241 -388.689 394.479 -394.857 448.712C-401.551 507.559 -396.087 556.214 -396.032 556.699L-397.658 556.883Z" fill="#27AE60"/>
<path d="M-365.317 606.237C-365.403 605.698 -373.842 551.671 -369.821 487.428C-366.104 428.059 -350.685 347.565 -298.327 301.239C-252.183 260.41 -184.988 252.099 -98.6183 276.545C62.6129 322.172 179.062 313.396 267.846 248.938C345.776 192.357 404.359 94.2175 463.737 -79.2245C489.055 -153.461 534.708 -209.581 599.426 -246.02C651.167 -275.154 715.133 -291.832 789.546 -295.595C916.138 -301.997 1030.72 -268.264 1031.87 -267.919L1031.4 -266.356C1030.26 -266.694 915.944 -300.353 789.589 -293.961C673.126 -288.067 522.323 -245.935 465.287 -78.6967C405.794 95.0873 347.032 193.465 268.812 250.258C179.585 315.036 62.6937 323.891 -99.0674 278.114C-184.86 253.835 -251.539 262.03 -297.241 302.462C-349.181 348.416 -364.488 428.466 -368.185 487.529C-372.196 551.594 -363.784 605.446 -363.697 605.981L-365.317 606.237Z" fill="#27AE60"/>
<path d="M-332.976 655.586C-333.091 654.996 -344.553 595.777 -343.311 526.367C-342.162 462.221 -329.614 375.99 -276.365 329.486C-230.729 289.63 -162.557 284.567 -73.7318 314.455C63.4536 360.608 164.437 363.366 244.068 323.133C353.268 267.957 414.273 134.07 477.307 -64.0604C503.318 -145.829 552.415 -204.098 623.232 -237.25C716.69 -281 832.121 -272.859 912.504 -258.319C999.55 -242.576 1065.39 -216.151 1066.04 -215.887L1065.42 -214.374C1064.77 -214.64 999.065 -241.006 912.177 -256.717C832.046 -271.203 716.99 -279.331 623.924 -235.769C553.539 -202.818 504.737 -144.883 478.869 -63.5701C415.707 134.972 354.519 269.155 244.812 324.592C164.764 365.04 63.3785 362.309 -74.2559 316.007C-162.482 286.318 -230.12 291.277 -275.283 330.716C-328.084 376.828 -340.53 462.58 -341.672 526.397C-342.911 595.636 -331.483 654.684 -331.368 655.274L-332.976 655.586Z" fill="#27AE60"/>
</g>
</g>
</g>
<defs>
<clipPath id="clip0_314_4473">
<rect width="587" height="379" fill="white"/>
</clipPath>
</defs>
</svg>
